<svg xmlns="http://www.w3.org/2000/svg" xmlns:xlink="http://www.w3.org/1999/xlink" x="0px" y="0px"
	 viewBox="0 0 715 90" style="enable-background:new 0 0 715 90;" xml:space="preserve">
<g>
	<path d="M391.6,87.6c-7.1,0-12.8-2.7-17.2-8.2c-4.4-5.5-6.6-12.6-6.6-21.3c0-10.9,3.8-21.8,11.5-32.8c3-4.1,6.9-8.1,11.7-12.1
		c4.8-4,9.6-7.4,14.5-10.4l6.5,10.2c-14.2,7.6-25.6,21-26.4,35.2c0.8-0.3,8-0.4,9.7-0.4c4.6,0,8.5,1.8,11.7,5.3
		c3.1,3.6,4.7,8.1,4.7,13.5c0,5.7-2,10.6-5.9,14.7C401.8,85.6,397.1,87.6,391.6,87.6z M326.7,87.6c-7.1,0-12.8-2.7-17.2-8.2
		c-4.4-5.5-6.6-12.6-6.6-21.3c0-10.9,3.8-21.8,11.5-32.8c3-4.1,6.9-8.1,11.7-12.1c4.8-4,9.6-7.4,14.5-10.4l6.5,10.2
		c-14.2,7.6-25.6,21-26.4,35.2c0.8-0.3,8-0.4,9.7-0.4c4.6,0,8.5,1.8,11.7,5.3c3.1,3.6,4.7,8.1,4.7,13.5c0,5.7-2,10.6-5.9,14.7
		C336.8,85.6,332.1,87.6,326.7,87.6z"/>
</g>
<g>
	<path d="M246.8,33.2V45H0V33.2H246.8z"/>
</g>
<g>
	<path d="M715,33.2V45H468.2V33.2H715z"/>
</g>
</svg>
