<?xml version="1.0" encoding="utf-8"?>
<!-- Generator: Adobe Illustrator 22.0.0, SVG Export Plug-In . SVG Version: 6.00 Build 0)  -->
<svg version="1.1" id="Logo" xmlns="http://www.w3.org/2000/svg" xmlns:xlink="http://www.w3.org/1999/xlink" x="0px" y="0px"
	 viewBox="0 0 509.9 334.6" style="enable-background:new 0 0 509.9 334.6;" xml:space="preserve">
<style type="text/css">
	.st0{fill:#FFFFFF;}
</style>
<title>cass-business-school-responsive</title>
<path class="st0" d="M336.8,316.9l4.8-6.7c1.5-2.2,2.9-4.2,4.2-6.1s2.4-3.5,3.2-4.8c0.6,0.2,1.2,0.2,1.8,0.3c0.6,0,1.1-0.1,1.6-0.3
	c-0.1,2.3-0.2,4.8-0.3,7.7s-0.1,5.8-0.1,8.8v5.7c1,0,1.9,0,2.9-0.1s1.6-0.2,2.2-0.3c-0.3,1.1-0.3,2.3,0,3.4
	c-0.7-0.1-1.5-0.2-2.2-0.2c-0.9,0-1.9-0.1-2.9-0.1v2.2c0,1.4,0,2.7,0.1,4.2s0.1,2.5,0.2,3.4c-0.7-0.1-1.5-0.1-2.3-0.1
	s-1.6,0-2.3,0.1c0.1-0.9,0.2-2,0.3-3.5s0.1-2.8,0.1-4.1v-2.2h-3.4l-4.7,0.1c-1.6,0-3.2,0.1-4.7,0.1l-3.3,0.1v-0.9
	C333.6,321.4,335.2,319.2,336.8,316.9 M348.1,304.1c-0.7,1-1.6,2.3-2.7,3.9l-3.4,4.9c-1.2,1.7-2.3,3.3-3.3,4.8s-1.9,2.8-2.5,3.8
	h12.1v-17.4L348.1,304.1L348.1,304.1z M308.2,332.4c0.9,0.4,1.8,0.6,2.7,0.6c1.7,0,3.4-0.5,4.8-1.5c1.4-1.1,2.5-2.5,3.2-4.1
	c0.9-1.8,1.5-3.7,1.8-5.6c0.4-2,0.6-4.1,0.6-6.2h-0.1c-0.8,1.4-1.9,2.6-3.2,3.5c-1.5,0.9-3.3,1.4-5.1,1.4c-2.7,0.2-5.4-0.8-7.4-2.7
	c-1.8-1.8-2.7-4.3-2.7-7.6c0-1.5,0.3-3,0.8-4.4c0.5-1.3,1.3-2.5,2.3-3.5c1-1,2.3-1.8,3.6-2.3c1.5-0.6,3.1-0.9,4.8-0.9
	c1.5,0,3,0.3,4.4,0.8c1.4,0.6,2.7,1.4,3.7,2.6c1.1,1.3,2,2.9,2.5,4.6c0.7,2.2,1,4.6,1,6.9c0,2.7-0.3,5.4-1,8.1
	c-0.6,2.3-1.6,4.6-3,6.6c-1.2,1.8-2.9,3.3-4.8,4.3c-2,1.1-4.2,1.6-6.4,1.5c-0.8,0-1.6-0.1-2.4-0.2c-0.6-0.1-1.1-0.3-1.7-0.4
	c-0.1-0.4-0.2-0.9-0.4-1.4c-0.2-0.5-0.4-1-0.6-1.4l0.3-0.1C306.6,331.5,307.4,332,308.2,332.4 M319.4,302.9c-1.2-1.5-3.1-2.3-5-2.2
	c-2,0-3.8,0.9-5,2.5c-1.4,2-2,4.5-1.9,6.9c0,3,0.6,5.1,1.7,6.4c1.2,1.3,2.9,2,4.6,1.9c1.1,0,2.2-0.3,3.2-0.8
	c0.9-0.6,1.7-1.3,2.3-2.2c0.6-1,1.1-2,1.4-3.1c0.3-1.2,0.5-2.4,0.5-3.6C321.3,306.6,320.7,304.5,319.4,302.9 M275.1,318.7
	c1.4-2,3.4-3.4,5.8-4v-0.4c-0.7-0.2-1.4-0.4-2-0.8c-0.7-0.4-1.3-0.9-1.8-1.5c-0.6-0.6-1-1.4-1.3-2.1c-0.4-0.9-0.5-1.8-0.5-2.7
	c0-1.1,0.2-2.2,0.7-3.1c0.5-1,1.2-1.9,2-2.6c0.9-0.8,1.9-1.4,3-1.8c1.3-0.5,2.6-0.7,4-0.7c1.5,0,3,0.2,4.4,0.6
	c1.1,0.4,2.1,0.9,3,1.7c0.8,0.7,1.4,1.5,1.8,2.4c0.4,0.9,0.6,1.9,0.6,2.9c0,1.6-0.5,3.2-1.5,4.6c-1.1,1.4-2.6,2.5-4.3,3v0.4
	c0.7,0.1,1.5,0.4,2.2,0.6c0.9,0.4,1.7,0.9,2.5,1.5c0.8,0.7,1.5,1.6,2,2.6c0.6,1.2,0.9,2.6,0.8,4c0,1.6-0.3,3.2-0.9,4.6
	c-0.6,1.3-1.4,2.5-2.5,3.5c-1.1,1-2.3,1.7-3.7,2.2c-1.4,0.5-2.9,0.7-4.5,0.7c-1.5,0-3.1-0.2-4.5-0.6c-1.3-0.4-2.6-1-3.7-1.9
	c-1-0.9-1.9-1.9-2.4-3.1c-0.6-1.3-0.9-2.8-0.9-4.3C273.3,322.4,273.9,320.4,275.1,318.7 M290.2,304.7c-0.2-0.8-0.5-1.5-1-2.1
	c-0.5-0.6-1.1-1.1-1.7-1.5c-1.6-0.7-3.4-0.7-5,0c-0.7,0.3-1.3,0.8-1.7,1.5c-0.5,0.6-0.8,1.3-1,2.1c-0.2,0.8-0.3,1.7-0.3,2.5
	c0,0.8,0.1,1.7,0.3,2.5c0.2,0.8,0.5,1.5,1,2.1c0.5,0.6,1.1,1.1,1.7,1.5c1.6,0.7,3.4,0.7,5,0c0.7-0.4,1.3-0.8,1.7-1.5
	c0.5-0.6,0.8-1.4,1-2.1c0.2-0.8,0.3-1.7,0.3-2.5C290.5,306.3,290.4,305.5,290.2,304.7 M291.3,320.7c-0.3-1-0.8-1.9-1.4-2.7
	c-1.9-2.4-5.2-3.1-8-1.8c-0.9,0.4-1.6,1-2.2,1.8c-0.6,0.8-1.1,1.7-1.4,2.7c-0.7,2.3-0.7,4.7,0,7c0.3,1,0.8,1.9,1.4,2.7
	c1.9,2.4,5.2,3.1,8,1.8c0.9-0.4,1.6-1,2.2-1.8c0.6-0.8,1.1-1.8,1.4-2.7C292,325.4,292,322.9,291.3,320.7 M251.7,305.7
	c-0.4-0.7-0.9-1.2-1.5-1.6v-0.4c2-0.8,4-1.7,6-2.6s4-1.9,5.8-2.8l0.4,0.2c-0.1,2.3-0.2,4.5-0.3,6.8c-0.1,2.2-0.1,4.5-0.1,6.8v8.6
	c0,2.3,0,4.5,0.1,6.7c0.1,2.2,0.2,4.3,0.3,6.4c-0.4-0.1-0.8-0.1-1.2-0.1h-2.4c-0.4,0-0.8,0-1.2,0.1c0.2-2.1,0.3-4.3,0.3-6.5
	s0.1-4.4,0.1-6.7v-18.3L251.7,305.7z M216.3,301h-2.8c-1,0-2,0-2.9,0.1s-1.9,0.1-2.9,0.2s-1.7,0.2-2.5,0.3c0.2-0.5,0.2-1.1,0.3-1.6
	c0-0.5-0.1-1.1-0.3-1.6l6.7,0.2c2.2,0,4.4,0.1,6.7,0.1s4.5,0,6.7-0.1l6.7-0.2c-0.2,0.5-0.2,1.1-0.3,1.7c0,0.5,0.1,1.1,0.3,1.6
	c-0.7-0.1-1.5-0.2-2.5-0.3s-1.9-0.1-2.9-0.2s-2-0.1-2.9-0.1h-2.8c-0.1,3.5-0.2,7.1-0.2,10.7v8.9c0,2.3,0,4.5,0.1,6.7
	s0.2,4.4,0.3,6.5c-0.8-0.1-1.6-0.1-2.5-0.1s-1.7,0-2.5,0.1c0.1-2.1,0.2-4.3,0.3-6.5s0.1-4.4,0.1-6.7v-8.9
	C216.5,308.1,216.5,304.6,216.3,301 M181.3,329c0.5,0.7,1.1,1.2,1.7,1.7c1.5,1.2,3.4,1.8,5.4,1.8c1.1,0,2.1-0.2,3.1-0.6
	c0.9-0.4,1.7-0.9,2.3-1.6c0.7-0.7,1.2-1.5,1.5-2.4c0.3-0.9,0.5-1.9,0.5-2.9c0.1-1.4-0.4-2.7-1.2-3.8c-0.8-1-1.9-1.7-3-2.3
	c-1.3-0.7-2.6-1.2-3.9-1.7c-1.4-0.5-2.7-1.1-3.9-1.9c-1.2-0.8-2.2-1.8-3-3c-0.9-1.5-1.3-3.1-1.2-4.9c0-1.4,0.2-2.7,0.8-4
	c0.5-1.2,1.3-2.2,2.2-3.1c1-0.9,2.2-1.6,3.5-2c1.5-0.5,3.1-0.8,4.7-0.7c1.4,0,2.9,0.2,4.3,0.6c1.2,0.4,2.4,1,3.4,1.8
	c-0.3,0.6-0.6,1.2-0.8,1.9c-0.2,0.7-0.4,1.5-0.6,2.5h-0.6c-0.2-0.5-0.4-1.1-0.7-1.6c-0.3-0.6-0.7-1.1-1.2-1.6
	c-0.5-0.5-1.1-0.9-1.8-1.2c-0.8-0.4-1.6-0.5-2.5-0.5c-0.9,0-1.8,0.1-2.6,0.5c-0.8,0.3-1.5,0.7-2.1,1.3c-0.6,0.6-1.1,1.3-1.4,2.1
	c-0.3,0.8-0.5,1.7-0.5,2.6c-0.1,1.4,0.4,2.7,1.2,3.8c0.8,1,1.9,1.8,3,2.4c1.3,0.7,2.6,1.2,3.9,1.7c1.4,0.5,2.7,1.1,3.9,1.8
	c1.2,0.7,2.2,1.7,3,2.8c0.9,1.4,1.3,2.9,1.2,4.5c0,1.5-0.3,3.1-0.9,4.5c-0.6,1.4-1.4,2.7-2.5,3.7c-1.1,1.1-2.5,1.9-4,2.4
	c-1.7,0.6-3.5,0.9-5.4,0.9c-1.8,0.1-3.5-0.2-5.2-0.9c-1.2-0.5-2.3-1.1-3.3-1.9c0.3-0.7,0.5-1.4,0.6-2.1c0.1-0.6,0.2-1.5,0.3-2.5h0.6
	C180.5,327.7,180.8,328.4,181.3,329 M153.1,305c-0.1-2.2-0.2-4.4-0.3-6.6l4.6,0.2c1.5,0,3.1,0.1,4.6,0.1s3.1,0,4.6-0.1l4.6-0.2
	c-0.1,0.5-0.2,1-0.1,1.5c0,0.5,0.1,1,0.1,1.5l-3-0.2l-2.9-0.2c-1-0.1-2.1-0.1-3.3-0.2s-2.6-0.1-4.3-0.1c0,1.1-0.1,2.1-0.1,3.1
	s-0.1,2.1-0.1,3.4s0,2.7,0,3.9s0,2.2,0,2.9c1.5,0,2.9,0,4.1-0.1s2.3-0.1,3.3-0.1l2.8-0.1c0.8-0.1,1.6-0.1,2.4-0.2
	c-0.1,0.5-0.2,1.1-0.1,1.6c0,0.5,0,1,0.1,1.5c-0.9-0.1-1.9-0.2-3.1-0.2c-1.2-0.1-2.4-0.1-3.6-0.1H160h-2.5c0,0.3,0,0.6,0,1
	s0,0.8,0,1.4v5.1c0,2,0,3.6,0,4.9c0,1.3,0,2.2,0.1,2.9h3.6c1.3,0,2.6,0,3.9-0.1s2.5-0.1,3.6-0.2c1-0.1,1.9-0.2,2.9-0.4
	c-0.1,0.3-0.1,0.5-0.1,0.8c0,0.3,0,0.6,0,0.8c0,0.5,0,0.9,0.1,1.3c-1.5-0.1-3.1-0.1-4.6-0.1h-9.4c-1.5,0-3.1,0-4.7,0.1
	c0.1-2.2,0.2-4.4,0.3-6.6s0.1-4.4,0.1-6.7v-8.9C153.2,309.5,153.2,307.3,153.1,305"/>
<path class="st0" d="M129.9,319.9H2.4c-1.1,0.2-2.1-0.5-2.4-1.5c-0.2-1.1,0.5-2.1,1.5-2.4c0.3-0.1,0.6-0.1,0.8,0h127.6
	c1.1-0.2,2.1,0.5,2.4,1.5s-0.5,2.1-1.5,2.4C130.5,319.9,130.2,319.9,129.9,319.9z"/>
<path class="st0" d="M507.5,319.9H379.9c-1.1,0-2-0.9-2-2s0.9-2,2-2h127.6c1.1,0,2,0.9,2,2S508.6,319.9,507.5,319.9z"/>
<path class="st0" d="M507.9,4H2C0.9,4,0,3.1,0,2s0.9-2,2-2h505.9c1.1,0,2,0.9,2,2S509,4,507.9,4z"/>
<path class="st0" d="M130.9,59.1h-2.2c-0.7-1.3-1.8-3.2-3.3-5.5c-1.8-2.7-4.1-5-6.8-6.8c-3.8-2.5-7.9-4.5-12.2-5.8
	c-5.1-1.7-11.6-2.5-19.4-2.5c-18.3,0-32.2,5.7-41.7,17S31.2,83,31.2,103.8c0,1.9,0.1,4.5,0.2,7.9c0.2,3.8,0.7,7.5,1.4,11.2
	c0.9,4.5,2.2,8.9,3.9,13.1c1.9,4.8,4.6,9.3,7.8,13.4c2,2.7,4.2,5.2,6.7,7.4c2.6,2.4,5.5,4.5,8.6,6.3c3.4,2,7,3.5,10.8,4.5
	c4.4,1.1,8.9,1.7,13.4,1.6c6,0.1,12-0.7,17.8-2.3c4.8-1.4,9.4-3.4,13.8-5.9c3.8-2.3,7.4-5,10.6-8c2.9-2.8,5.7-5.7,8.3-8.7l2.4,1.5
	l-2.4,21.6c-16.6,9.2-35,13.8-55.2,13.8c-10.2,0.1-20.4-1.6-30.1-4.9c-9.1-3.1-17.6-8-24.8-14.4c-7.2-6.6-13-14.7-16.8-23.7
	c-4.1-9.5-6.2-20.3-6.2-32.5C1.2,95.3,2.9,84.9,6.4,75C9.7,65.6,15,57,22,49.9c7-7.1,15.8-12.8,26.5-16.9
	c10.7-4.1,23.3-6.2,37.9-6.2c8.6,0,17.3,0.8,25.8,2.5c8.7,1.9,17.2,4.7,25.3,8.4L130.9,59.1z"/>
<path class="st0" d="M243.7,154l-9.2-23.1c-4.7-0.3-9.3-0.5-14-0.7c-4.7-0.1-9.3-0.2-14-0.2c-4.4,0-8.7,0.1-13.1,0.2
	c-4.4,0.1-8.7,0.4-13.1,0.7c-3.5,8.4-6.8,16.9-10,25.3s-5.6,15.8-7.4,22c-1.5-0.3-3.1-0.6-5-0.9c-1.8-0.3-3.6-0.4-5.5-0.4
	c-1.7,0-3.4,0.1-5.1,0.4l-4.7,0.9l25.3-56.3c5.5-12.4,10.5-23.5,14.8-33.3c4.4-9.8,8.2-18.6,11.5-26.3c3.3-7.7,6-14.5,8.3-20.4
	s4-11.1,5.4-15.6c1.2,0.3,2.3,0.5,3.5,0.8c1.2,0.2,2.5,0.3,3.7,0.3c2.4,0,4.7-0.4,7-1.1c2.6,7.4,5.3,14.8,8.2,22.3
	c2.8,7.4,5.7,14.6,8.5,21.4c2.8,6.8,5.5,13.3,8,19.3c2.5,6,4.7,11.3,6.8,15.8c2,4.8,4.4,10.3,7.2,16.5c2.8,6.2,5.6,12.6,8.5,19.2
	c2.9,6.6,5.8,13.2,8.7,19.8c2.9,6.5,5.6,12.4,8.1,17.7c-1.6-0.1-4.1-0.4-7.4-0.8c-3.2-0.4-6.4-0.5-9.6-0.5c-3,0-5.9,0.2-8.8,0.5
	c-2.8,0.4-5.3,0.6-7.3,0.8L243.7,154z M207.7,63.7l-22.3,53.7c3.8,0.1,7.6,0.3,11.4,0.6c3.8,0.2,7.6,0.3,11.4,0.3
	c3.3,0,6.7-0.1,10-0.2s6.7-0.4,10-0.6L207.7,63.7z"/>
<path class="st0" d="M303.3,145.5c2,4.7,4.6,9.1,7.6,13.2c2.3,3,5,5.5,8.2,7.5c2.7,1.7,5.6,2.9,8.7,3.5c3.1,0.6,6.2,0.9,9.3,0.9
	c4,0.1,8-0.6,11.8-2.1c3.3-1.3,6.4-3.2,9-5.7c2.5-2.4,4.5-5.4,5.8-8.6c1.4-3.5,2.1-7.2,2.1-10.9c0.1-3.8-0.6-7.5-2.2-11
	c-1.3-2.7-3-5.2-5.1-7.4c-1.7-1.8-3.8-3.3-6-4.5c-2-1-3.6-1.7-4.6-2.2c-3.1-1.3-6.8-2.9-11.2-4.6s-8.2-3.3-11.2-4.7
	c-4.7-2-9.1-4.5-13.2-7.4c-3.3-2.3-6.2-5.3-8.5-8.6c-2.1-3.1-3.6-6.6-4.5-10.3c-0.9-4-1.3-8.2-1.3-12.3c0-5.1,0.9-10.1,2.4-14.9
	c1.6-5.2,4.4-10,8.2-14.1c4.4-4.6,9.7-8.1,15.6-10.5c6.5-2.8,14.8-4.1,24.7-4.1c8,0,14.7,0.9,20.1,2.6c5.5,1.8,10.9,3.9,16.1,6.3
	c-1.2,2.6-2.1,4.8-2.7,6.6c-0.7,1.7-1.2,3.3-1.6,4.7c-0.4,1.4-0.8,2.8-1.2,4.3c-0.4,1.5-0.8,3.2-1.2,5.2h-3
	c-1.4-5.9-5.1-11-10.3-14.2c-5.5-3.3-11.9-4.9-18.3-4.8c-8.6,0-15,2.3-19.3,7c-4.2,4.5-6.5,10.4-6.4,16.5c-0.3,6.6,2.7,13,8,17
	c2.9,2.2,6.1,4.1,9.5,5.5c3.8,1.6,8.1,3.3,12.9,5.2c4.2,1.6,7.8,3,10.8,4.2c3,1.2,5.6,2.4,8,3.6c2.1,1,4.1,2.2,6,3.6
	c1.8,1.3,3.4,2.8,4.9,4.5c2.2,2.3,4.1,4.9,5.6,7.8c1.3,2.6,2.4,5.2,3.2,8c0.7,2.4,1.2,4.9,1.5,7.4c0.3,1.9,0.4,3.8,0.4,5.7
	c0,5.7-1.1,11.4-3,16.8c-2.1,5.8-5.4,11-9.7,15.4c-4.9,4.9-10.7,8.7-17.1,11.2c-7,2.9-15.5,4.4-25.5,4.4c-4.4,0-8.8-0.4-13.2-1.2
	c-3.8-0.7-7.6-1.7-11.4-3c-3.4-1.2-6.5-2.4-9.3-3.6c-2.8-1.2-5.1-2.4-7-3.4c0.9-2.8,1.6-5.1,2.2-7.1c0.5-1.8,1-3.7,1.3-5.6
	c0.3-1.7,0.5-3.5,0.8-5.4s0.5-4,0.8-6.7L303.3,145.5L303.3,145.5z"/>
<path class="st0" d="M420.4,145.5c2,4.7,4.6,9.1,7.6,13.2c2.3,3,5,5.5,8.2,7.5c2.7,1.7,5.6,2.9,8.7,3.5c3.1,0.6,6.2,0.9,9.3,0.9
	c4,0.1,8-0.6,11.8-2.1c3.3-1.3,6.4-3.2,9-5.7c2.5-2.4,4.5-5.4,5.8-8.6c1.4-3.5,2.1-7.2,2.1-10.9c0.1-3.8-0.6-7.5-2.2-11
	c-1.3-2.7-3-5.2-5.1-7.4c-1.7-1.8-3.8-3.3-6-4.5c-2-1-3.6-1.7-4.6-2.2c-3.1-1.3-6.8-2.9-11.2-4.6c-4.4-1.7-8.2-3.3-11.2-4.7
	c-4.7-2-9.1-4.5-13.2-7.4c-3.3-2.4-6.2-5.3-8.5-8.6c-2.1-3.1-3.6-6.6-4.5-10.3c-0.9-4-1.3-8.2-1.3-12.3c0-5.1,0.9-10.1,2.4-14.9
	c1.6-5.2,4.4-10,8.2-14.1c4.4-4.6,9.7-8.1,15.6-10.5c6.5-2.8,14.8-4.1,24.7-4.1c8,0,14.7,0.9,20.1,2.6c5.5,1.8,10.9,3.9,16.2,6.3
	c-1.2,2.6-2.1,4.8-2.7,6.6s-1.2,3.3-1.7,4.8c-0.4,1.4-0.8,2.8-1.2,4.3c-0.4,1.5-0.8,3.2-1.2,5.2h-3c-1.4-5.9-5.1-11-10.3-14.2
	c-5.5-3.3-11.9-4.9-18.3-4.8c-8.6,0-15,2.3-19.3,7c-4.2,4.5-6.5,10.4-6.4,16.5c-0.3,6.6,2.7,13,8,17c2.9,2.2,6.1,4.1,9.5,5.5
	c3.8,1.6,8.1,3.3,12.9,5.2c4.2,1.6,7.8,3,10.8,4.2s5.6,2.4,8,3.6c2.1,1,4.1,2.2,6,3.6c1.8,1.3,3.4,2.8,4.9,4.5
	c2.2,2.3,4.1,4.9,5.6,7.8c1.3,2.6,2.4,5.2,3.2,8c0.7,2.4,1.2,4.9,1.5,7.4c0.3,1.9,0.4,3.8,0.4,5.7c0,5.7-1.1,11.4-3,16.8
	c-2.1,5.8-5.4,11-9.7,15.4c-4.9,4.9-10.7,8.7-17.1,11.2c-7,2.9-15.5,4.4-25.5,4.4c-4.4,0-8.8-0.4-13.2-1.2c-3.8-0.7-7.6-1.7-11.3-3
	c-3.4-1.2-6.5-2.4-9.3-3.6c-2.8-1.2-5.1-2.4-7-3.4c0.9-2.8,1.6-5.1,2.2-7.1c0.5-1.8,1-3.7,1.3-5.6c0.3-1.7,0.5-3.5,0.8-5.4
	s0.5-4,0.8-6.7L420.4,145.5L420.4,145.5z"/>
<path class="st0" d="M28,223.9c0,1-0.1,1.9-0.4,2.9c-0.2,0.8-0.6,1.5-1,2.2c-0.3,0.6-0.7,1.1-1.2,1.5l-0.9,1
	c-0.4,0.4-0.9,0.8-1.4,1.1c-0.6,0.4-1.3,0.8-2,1.1c-0.9,0.4-1.9,0.6-2.9,0.8c-1.3,0.2-2.7,0.3-4,0.3c-1.2,0-2.4,0-3.6-0.1
	c-1.2-0.1-2.4-0.1-3.6-0.1c-0.9,0-1.8,0-2.8,0.1c-0.9,0.1-1.8,0.1-2.8,0.2c0.2-3.3,0.3-6.8,0.3-10.3s0.1-6.9,0.1-10
	c0-3.2,0-6.3-0.1-9.5s-0.2-6.3-0.4-9.5c0.7,0.1,1.4,0.1,2.1,0.2c0.6,0,1.6,0.1,2.9,0.1c0.3,0,0.8,0,1.6-0.1c0.8,0,1.6-0.1,2.4-0.1
	c0.8,0,1.6,0,2.4-0.1c0.8,0,1.3-0.1,1.6-0.1c1.5,0,3.1,0.1,4.6,0.4c1.3,0.2,2.6,0.7,3.8,1.4c1.1,0.7,2,1.7,2.6,2.8
	c0.7,1.4,1.1,3,1,4.6c0,1.2-0.3,2.5-0.9,3.5c-0.6,1-1.3,1.9-2.2,2.7c-0.9,0.8-2,1.4-3.1,1.8c-1.1,0.5-2.3,0.8-3.5,0.9
	c1.5,0.1,3,0.4,4.4,0.8c1.3,0.3,2.5,0.9,3.6,1.8c1,0.8,1.9,1.8,2.4,3C27.8,220.7,28.1,222.3,28,223.9z M8.8,212.4l1.2,0.1
	c0.4,0,0.8,0,1.2,0c2.1,0.1,4.2-0.5,5.8-1.9c1.4-1.5,2.2-3.6,2-5.7c0.1-1.7-0.5-3.4-1.6-4.7c-1.2-1.3-2.8-1.9-4.5-1.8
	c-1.3,0-2.7,0.1-4,0.2c0,0.8-0.1,1.5-0.1,2.3s0,1.6,0,2.3L8.8,212.4L8.8,212.4z M8.8,226.8c0,0.5,0,1.2,0,2.1c0,1,0,1.8,0.1,2.6
	l1.6,0.2c0.5,0.1,1,0.1,1.6,0.1c2.3,0.2,4.5-0.6,6.2-2c1.5-1.3,2.2-3.4,2.2-6.2c0-1.4-0.2-2.8-0.7-4.1c-0.4-1-1.1-1.9-1.9-2.6
	c-0.9-0.7-1.9-1.2-3-1.4c-1.3-0.3-2.7-0.4-4-0.4c-0.7,0-1.4,0.1-2.1,0.2L8.8,226.8L8.8,226.8z"/>
<path class="st0" d="M42.6,199.9c-0.1,2.2-0.1,4.6-0.1,7.2c0,2.6,0,5.1,0,7.6c0,2.3,0,4.2,0.1,5.6c0,1.5,0.1,2.7,0.2,3.6
	c0.1,0.8,0.3,1.6,0.5,2.4c0.2,0.6,0.6,1.2,1,1.8c0.9,1.2,2.1,2.1,3.5,2.6c1.7,0.6,3.5,1,5.3,0.9c2.1,0,4.2-0.5,6-1.6
	c1.6-1,2.9-2.5,3.5-4.3c0.1-0.3,0.2-0.7,0.3-1.1c0.1-0.5,0.2-1,0.2-1.5c0.1-0.6,0.1-1.3,0.1-2.1c0-0.8,0.1-1.8,0.1-3
	c0-3.7,0-7.5-0.1-11.2s-0.2-7.5-0.4-11.2l1.3,0.2c0.4,0.1,0.9,0.1,1.3,0.1c0.5,0,0.9,0,1.4-0.1l1.3-0.2l-0.2,2.8
	c-0.1,1.2-0.1,2.8-0.2,4.8s-0.1,4-0.1,6.2c0,2.1-0.1,4.2-0.1,6.3s-0.1,3.8-0.1,5.3c0,1.5-0.2,3-0.4,4.4c-0.2,1.2-0.6,2.3-1.1,3.4
	c-0.5,0.9-1.1,1.8-1.8,2.5c-0.8,0.8-1.6,1.4-2.5,2c-1.4,0.9-3,1.6-4.7,1.9c-1.6,0.4-3.3,0.6-5,0.6c-1.8,0-3.5-0.2-5.3-0.5
	c-1.7-0.3-3.4-0.9-5-1.7c-1.6-0.8-2.9-2-4-3.4c-1.2-1.6-1.9-3.5-2.1-5.5c-0.1-0.5-0.1-1.1-0.1-1.6v-17c0-0.7,0-1.5,0-2.4
	c0-0.9,0-1.8-0.1-2.7c0-0.9,0-1.8-0.1-2.7c-0.1-0.9-0.1-1.7-0.1-2.4l2,0.2c0.7,0.1,1.3,0.1,2,0.1c0.6,0,1.3,0,1.9-0.1l1.8-0.2
	L42.6,199.9z"/>
<path class="st0" d="M76.8,226.2c0.5,1.2,1.2,2.4,2,3.5c0.6,0.8,1.3,1.5,2.1,2c0.7,0.4,1.5,0.8,2.3,0.9c0.8,0.2,1.6,0.2,2.4,0.2
	c1.1,0,2.1-0.2,3.1-0.5c0.9-0.3,1.7-0.8,2.4-1.5c0.7-0.6,1.2-1.4,1.5-2.3c0.4-0.9,0.6-1.9,0.5-2.9c0-1-0.2-2-0.6-2.9
	c-0.3-0.7-0.8-1.4-1.4-2c-0.5-0.5-1-0.9-1.6-1.2c-0.5-0.3-0.9-0.5-1.2-0.6c-0.8-0.3-1.8-0.7-3-1.2c-1.2-0.5-2.2-0.9-3-1.2
	c-1.2-0.5-2.4-1.2-3.5-2c-0.9-0.6-1.6-1.4-2.2-2.3c-0.6-0.8-0.9-1.7-1.2-2.7c-0.2-1.1-0.4-2.2-0.3-3.2c0-1.3,0.2-2.7,0.6-3.9
	c0.4-1.4,1.2-2.6,2.1-3.7c1.2-1.2,2.6-2.1,4.1-2.8c2.1-0.8,4.3-1.2,6.5-1.1c1.8,0,3.6,0.2,5.3,0.7c1.4,0.5,2.9,1,4.2,1.7
	c-0.3,0.7-0.5,1.2-0.7,1.7c-0.2,0.5-0.3,0.9-0.4,1.2c-0.1,0.4-0.2,0.7-0.3,1.1s-0.2,0.8-0.3,1.4h-0.8c-0.4-1.6-1.3-2.9-2.7-3.7
	c-1.5-0.9-3.1-1.3-4.8-1.3c-1.9-0.1-3.7,0.5-5.1,1.8c-1,1.2-1.6,2.7-1.6,4.3c0,0.9,0.2,1.8,0.5,2.6c0.4,0.7,0.9,1.4,1.6,1.9
	c0.8,0.6,1.6,1.1,2.5,1.4c1,0.4,2.1,0.9,3.4,1.4c1.1,0.4,2.1,0.8,2.8,1.1c0.8,0.3,1.5,0.6,2.1,1c0.6,0.3,1.1,0.6,1.6,1
	c0.5,0.3,0.9,0.7,1.3,1.2c0.6,0.6,1.1,1.3,1.5,2c0.3,0.7,0.6,1.4,0.8,2.1c0.2,0.6,0.3,1.3,0.4,2c0.1,0.5,0.1,1,0.1,1.5
	c0,1.5-0.3,3-0.8,4.4c-0.6,1.5-1.4,2.9-2.6,4c-1.3,1.3-2.8,2.3-4.5,3c-2.1,0.8-4.4,1.2-6.7,1.1c-1.2,0-2.3-0.1-3.5-0.3
	c-1-0.2-2-0.4-3-0.8c-0.9-0.3-1.7-0.6-2.4-1c-0.7-0.3-1.3-0.6-1.8-0.9c0.2-0.7,0.4-1.3,0.6-1.9c0.1-0.5,0.3-1,0.3-1.5
	c0.1-0.5,0.1-0.9,0.2-1.4s0.1-1.1,0.2-1.8L76.8,226.2L76.8,226.2z"/>
<path class="st0" d="M108.4,208.7c0-1.8,0-3.8-0.1-5.9s-0.2-4.5-0.5-7.3c0.5,0.1,1.2,0.2,2.1,0.2c0.9,0.1,1.5,0.1,1.9,0.1
	c0.7,0,1.3,0,2-0.1l2.1-0.2c-0.2,1.1-0.3,2.4-0.4,4.1s-0.2,3.4-0.2,5.3c0,1.9-0.1,3.7-0.1,5.6v5c0,4.3,0,8,0.1,11.1
	c0.1,3.1,0.2,5.9,0.5,8.2c-0.7,0-1.3-0.1-2-0.2c-0.7-0.1-1.3-0.1-2-0.1c-0.7,0-1.4,0-2.1,0.1c-0.7,0.1-1.4,0.2-2.1,0.2
	c0.3-3.4,0.5-7.4,0.5-11.9C108.4,218.4,108.4,213.7,108.4,208.7z"/>
<path class="st0" d="M126,211.6c0-2.7,0-5.4,0-8.1s0-5.3-0.1-8c0.2,0,0.5,0.1,0.7,0.1s0.5,0,0.7,0s0.4,0,0.7,0l0.7-0.1l4.1,4.4
	c1.3,1.5,2.7,2.9,4.1,4.4c1.4,1.4,2.9,2.9,4.4,4.5c1.5,1.5,3.2,3.2,4.9,4.8l6.8,6.6c0.5,0.5,1,1,1.4,1.3c0.4,0.3,0.9,0.7,1.5,1.2
	V210c0-2.4-0.1-4.9-0.2-7.3s-0.3-4.8-0.5-7.2l1.1,0.2c0.5,0.1,0.9,0.1,1.4,0.1c0.5,0,0.9,0,1.4-0.1l1.1-0.2
	c-0.1,1.7-0.2,3.3-0.3,4.8s-0.2,2.9-0.2,4.4c0,1.5-0.1,3-0.1,4.6c0,1.6,0,3.5,0,5.6v3.3c0,1.3,0,2.7,0,4.1c0,1.4,0,2.8,0,4.1v4.2
	c0,0.5,0,1,0,1.6c0,0.6,0,1.1,0,1.6v1.3l-0.6-0.1c-0.2,0-0.4,0-0.6,0h-0.6c-0.2,0-0.4,0-0.6,0.1l-4.1-4.4c-1.5-1.6-3.2-3.3-4.8-5
	c-1.7-1.7-3.4-3.4-5.2-5.2c-1.8-1.8-3.5-3.4-5.1-5s-3.2-3.1-4.5-4.5c-1.4-1.3-2.6-2.5-3.6-3.4v5.2c0,1.5,0,3,0,4.4s0,2.8,0.1,4.1
	c0,1.3,0,2.8,0.1,4.3c0,0.8,0,1.5,0,2.1s0,1.1,0.1,1.8c0,0.6,0.1,1.3,0.1,2.1c0.1,0.8,0.1,1.9,0.3,3.2c-0.3,0-0.7-0.1-1.2-0.2
	c-0.5-0.1-0.9-0.1-1.4-0.1c-0.4,0-0.8,0-1.2,0.1l-1.1,0.2l0.5-8c0-0.4,0.1-0.9,0.1-1.6s0-1.4,0.1-2.1s0-1.5,0-2.1L126,211.6
	L126,211.6z"/>
<path class="st0" d="M176.7,212.5h2.7c1.1,0,2.2,0,3.4-0.1c1.2,0,2.3-0.1,3.4-0.1c1.1-0.1,2-0.1,2.8-0.2c-0.1,0.3-0.1,0.6-0.2,1
	c-0.1,0.4-0.1,0.7-0.1,1.1c0,0.7,0.1,1.3,0.3,2c-0.8-0.1-1.5-0.1-2.2-0.2l-2.2-0.1l-4-0.1h-4v15.5h2.1l3.5-0.1l4.1-0.2
	c1.4,0,2.8-0.1,4-0.2c-0.2,0.6-0.3,1.2-0.3,1.9c0,0.7,0.1,1.4,0.3,2.1c-3.4-0.2-7-0.3-10.5-0.3c-3.5,0-7.1,0.1-10.8,0.3
	c0.1-1.2,0.1-2.4,0.2-3.6c0-1.2,0.1-2.4,0.1-3.6c0-0.8,0.1-1.9,0.1-3.1s0-2.4,0.1-3.7c0-1.2,0-2.4,0.1-3.5s0-2,0-2.7
	c0-0.6,0-1.7,0-3.2s0-3.2-0.1-5.1c0-1.9-0.1-3.8-0.1-5.8s-0.1-3.6-0.3-5.1l2.4,0.1l2.7,0.1l2.8,0.1h2.5c1.3,0,2.9,0,4.7-0.1l5.8-0.2
	l-0.2,0.9c-0.1,0.3-0.1,0.6-0.1,0.9c0,0.7,0.1,1.4,0.3,2.1l-5.4-0.3l-1.4-0.1c-0.4,0-0.9,0-1.4,0h-5.2L176.7,212.5L176.7,212.5z"/>
<path class="st0" d="M197.8,226.2c0.5,1.2,1.2,2.4,2,3.5c0.6,0.8,1.3,1.5,2.1,2c0.7,0.4,1.5,0.8,2.3,0.9c0.8,0.2,1.6,0.2,2.4,0.2
	c1.1,0,2.1-0.2,3.1-0.5c0.9-0.3,1.7-0.8,2.4-1.5c0.7-0.6,1.2-1.4,1.5-2.3c0.4-0.9,0.6-1.9,0.5-2.9c0-1-0.2-2-0.6-2.9
	c-0.3-0.7-0.8-1.4-1.4-2c-0.5-0.5-1-0.9-1.6-1.2c-0.5-0.3-0.9-0.5-1.2-0.6c-0.8-0.3-1.8-0.7-3-1.2c-1.2-0.5-2.2-0.9-3-1.2
	c-1.2-0.5-2.4-1.2-3.5-2c-0.9-0.6-1.6-1.4-2.2-2.3c-0.6-0.8-0.9-1.7-1.2-2.7c-0.2-1.1-0.4-2.2-0.3-3.2c0-1.3,0.2-2.7,0.6-3.9
	c0.4-1.4,1.2-2.6,2.1-3.7c1.2-1.2,2.6-2.1,4.1-2.8c2.1-0.8,4.3-1.2,6.5-1.1c1.8,0,3.6,0.2,5.3,0.7c1.4,0.5,2.9,1,4.2,1.7
	c-0.3,0.7-0.5,1.2-0.7,1.7c-0.2,0.5-0.3,0.9-0.4,1.2c-0.1,0.4-0.2,0.7-0.3,1.1c-0.1,0.4-0.2,0.8-0.2,1.3h-0.8
	c-0.4-1.6-1.3-2.9-2.7-3.7c-1.5-0.9-3.1-1.3-4.8-1.3c-1.9-0.1-3.7,0.5-5.1,1.8c-1.1,1.2-1.7,2.7-1.7,4.4c0,0.9,0.2,1.8,0.5,2.6
	c0.4,0.7,0.9,1.4,1.5,1.9c0.8,0.6,1.6,1.1,2.5,1.4c1,0.4,2.1,0.9,3.4,1.4c1.1,0.4,2.1,0.8,2.8,1.1c0.8,0.3,1.5,0.6,2.1,1
	c0.6,0.3,1.1,0.6,1.6,1c0.5,0.3,0.9,0.7,1.3,1.2c0.6,0.6,1.1,1.3,1.5,2c0.3,0.7,0.6,1.4,0.8,2.1c0.2,0.6,0.3,1.3,0.4,2
	c0.1,0.5,0.1,1,0.1,1.5c0,1.5-0.3,3-0.8,4.4c-0.6,1.5-1.4,2.9-2.5,4c-1.3,1.3-2.8,2.3-4.5,3c-2.1,0.8-4.4,1.2-6.7,1.1
	c-1.2,0-2.3-0.1-3.5-0.3c-1-0.2-2-0.4-3-0.8c-0.9-0.3-1.7-0.6-2.4-1c-0.7-0.3-1.3-0.6-1.8-0.9c0.2-0.7,0.4-1.3,0.6-1.9
	c0.1-0.5,0.3-1,0.3-1.5c0.1-0.5,0.1-0.9,0.2-1.4s0.1-1.1,0.2-1.8L197.8,226.2L197.8,226.2z"/>
<path class="st0" d="M228.5,226.2c0.5,1.2,1.2,2.4,2,3.5c0.6,0.8,1.3,1.5,2.1,2c0.7,0.4,1.5,0.8,2.3,0.9c0.8,0.2,1.6,0.2,2.4,0.2
	c1.1,0,2.1-0.2,3.1-0.5c0.9-0.3,1.7-0.8,2.4-1.5c0.7-0.6,1.2-1.4,1.5-2.3c0.4-0.9,0.6-1.9,0.5-2.9c0-1-0.2-2-0.6-2.9
	c-0.3-0.7-0.8-1.4-1.4-2c-0.5-0.5-1-0.9-1.6-1.2c-0.5-0.3-0.9-0.5-1.2-0.6c-0.8-0.3-1.8-0.7-3-1.2c-1.2-0.5-2.2-0.9-3-1.2
	c-1.2-0.5-2.4-1.2-3.5-2c-0.9-0.6-1.6-1.4-2.2-2.3c-0.6-0.8-0.9-1.7-1.2-2.7c-0.2-1.1-0.4-2.2-0.3-3.2c0-1.3,0.2-2.7,0.6-3.9
	c0.4-1.4,1.2-2.6,2.1-3.7c1.2-1.2,2.6-2.1,4.1-2.8c2.1-0.8,4.3-1.2,6.5-1.1c1.8,0,3.6,0.2,5.3,0.7c1.4,0.5,2.9,1,4.2,1.7
	c-0.3,0.7-0.5,1.2-0.7,1.7c-0.2,0.5-0.3,0.9-0.4,1.2c-0.1,0.4-0.2,0.7-0.3,1.1s-0.2,0.8-0.3,1.4h-0.7c-0.4-1.6-1.3-2.9-2.7-3.7
	c-1.5-0.9-3.1-1.3-4.8-1.3c-1.9-0.1-3.7,0.5-5.1,1.8c-1.1,1.2-1.7,2.7-1.7,4.4c0,0.9,0.2,1.8,0.5,2.6c0.4,0.7,0.9,1.4,1.5,1.9
	c0.8,0.6,1.6,1.1,2.5,1.4c1,0.4,2.1,0.9,3.4,1.4c1.1,0.4,2.1,0.8,2.8,1.1c0.8,0.3,1.5,0.6,2.1,1c0.6,0.3,1.1,0.6,1.6,1
	c0.5,0.3,0.9,0.7,1.3,1.2c0.6,0.6,1.1,1.3,1.5,2c0.3,0.7,0.6,1.4,0.8,2.1c0.2,0.6,0.3,1.3,0.4,2c0.1,0.5,0.1,1,0.1,1.5
	c0,1.5-0.3,3-0.8,4.4c-0.6,1.5-1.4,2.9-2.5,4c-1.3,1.3-2.8,2.3-4.5,3c-2.1,0.8-4.4,1.2-6.7,1.1c-1.2,0-2.3-0.1-3.5-0.3
	c-1-0.2-2-0.4-3-0.8c-0.9-0.3-1.7-0.6-2.4-1c-0.7-0.3-1.3-0.6-1.8-0.9c0.2-0.7,0.4-1.3,0.6-1.9c0.1-0.5,0.3-1,0.3-1.5
	c0.1-0.5,0.1-0.9,0.2-1.4s0.1-1.1,0.2-1.8L228.5,226.2L228.5,226.2z"/>
<path class="st0" d="M274.2,226.2c0.5,1.2,1.2,2.4,2,3.5c0.6,0.8,1.3,1.5,2.1,2c0.7,0.4,1.5,0.8,2.3,0.9c0.8,0.2,1.6,0.2,2.4,0.2
	c1.1,0,2.1-0.2,3.1-0.5c0.9-0.3,1.7-0.8,2.4-1.5c0.7-0.6,1.2-1.4,1.5-2.3c0.4-0.9,0.6-1.9,0.5-2.9c0-1-0.2-2-0.6-2.9
	c-0.3-0.7-0.8-1.4-1.4-2c-0.5-0.5-1-0.9-1.6-1.2c-0.5-0.3-0.9-0.5-1.2-0.6c-0.8-0.3-1.8-0.7-3-1.2c-1.2-0.5-2.2-0.9-3-1.2
	c-1.2-0.5-2.4-1.2-3.5-2c-0.9-0.6-1.6-1.4-2.2-2.3c-0.6-0.8-0.9-1.7-1.2-2.7c-0.2-1.1-0.4-2.2-0.3-3.2c0-1.3,0.2-2.7,0.6-3.9
	c0.4-1.4,1.2-2.6,2.1-3.7c1.2-1.2,2.6-2.1,4.1-2.8c2.1-0.8,4.3-1.2,6.5-1.1c1.8,0,3.6,0.2,5.3,0.7c1.4,0.5,2.9,1,4.2,1.7
	c-0.3,0.7-0.5,1.2-0.7,1.7c-0.2,0.5-0.3,0.9-0.4,1.2c-0.1,0.4-0.2,0.7-0.3,1.1s-0.2,0.8-0.3,1.4h-0.8c-0.3-1.5-1.2-2.9-2.5-3.8
	c-1.5-0.9-3.1-1.3-4.8-1.3c-1.9-0.1-3.7,0.5-5.1,1.8c-1.1,1.2-1.7,2.7-1.7,4.4c0,0.9,0.2,1.8,0.5,2.6c0.4,0.7,0.9,1.4,1.5,1.9
	c0.8,0.6,1.6,1.1,2.5,1.4c1,0.4,2.1,0.9,3.4,1.4c1.1,0.4,2.1,0.8,2.8,1.1s1.5,0.6,2.1,1c0.6,0.3,1.1,0.6,1.6,1
	c0.5,0.3,0.9,0.7,1.3,1.2c0.6,0.6,1.1,1.3,1.5,2c0.3,0.7,0.6,1.4,0.8,2.1c0.2,0.6,0.3,1.3,0.4,2c0.1,0.5,0.1,1,0.1,1.5
	c0,1.5-0.3,3-0.8,4.4c-0.6,1.5-1.4,2.9-2.5,4c-1.3,1.3-2.8,2.3-4.5,3c-2.1,0.8-4.4,1.2-6.7,1.1c-1.2,0-2.3-0.1-3.5-0.3
	c-1-0.2-2-0.4-3-0.8c-0.9-0.3-1.7-0.6-2.4-1c-0.7-0.3-1.3-0.6-1.8-0.9c0.2-0.7,0.4-1.3,0.6-1.9c0.1-0.5,0.3-1,0.3-1.5
	c0.1-0.5,0.1-0.9,0.2-1.4s0.1-1.1,0.2-1.8L274.2,226.2L274.2,226.2z"/>
<path class="st0" d="M337.2,203.5h-0.6c-0.2-0.3-0.5-0.8-0.9-1.4c-0.5-0.7-1.1-1.3-1.8-1.8c-1-0.7-2.1-1.2-3.2-1.5
	c-1.7-0.5-3.4-0.7-5.1-0.7c-4.8,0-8.5,1.5-10.9,4.5s-3.7,7.2-3.7,12.7c0,0.5,0,1.2,0.1,2.1c0,1,0.2,2,0.4,3c0.2,1.2,0.6,2.3,1,3.4
	c0.5,1.3,1.2,2.4,2,3.5c0.5,0.7,1.1,1.4,1.8,2c0.7,0.6,1.5,1.2,2.3,1.7c0.9,0.5,1.8,0.9,2.8,1.2c1.1,0.3,2.3,0.4,3.5,0.4
	c1.6,0,3.2-0.2,4.7-0.6c1.3-0.4,2.5-0.9,3.6-1.5c1-0.6,1.9-1.3,2.8-2.1c0.8-0.7,1.5-1.5,2.2-2.3l0.6,0.4l-0.6,5.6
	c-4.4,2.4-9.4,3.7-14.5,3.6c-2.7,0-5.4-0.4-7.9-1.3c-2.4-0.8-4.6-2.1-6.5-3.8c-1.9-1.7-3.4-3.9-4.4-6.2c-1.1-2.7-1.7-5.6-1.6-8.5
	c0-2.8,0.4-5.5,1.4-8.1c0.9-2.5,2.3-4.7,4.1-6.6c2-2,4.4-3.5,7-4.4c3.2-1.2,6.6-1.7,9.9-1.6c2.3,0,4.5,0.2,6.8,0.7
	c2.3,0.5,4.5,1.2,6.6,2.2L337.2,203.5z"/>
<path class="st0" d="M371.8,215.5c-1.6-0.1-3.1-0.1-4.6-0.2c-1.5,0-3.1-0.1-4.6-0.1c-1.6,0-3.3,0-4.9,0.1c-1.6,0-3.2,0.1-4.9,0.2
	v5.7c0,1.8,0,3.4,0,4.7s0,2.5,0.1,3.5c0.1,1,0.1,1.9,0.2,2.8c0.1,0.8,0.1,1.7,0.2,2.6c-0.4,0-1-0.1-1.7-0.2
	c-0.7-0.1-1.5-0.1-2.3-0.1c-0.7,0-1.3,0-2,0.1l-2,0.2c0.2-4.4,0.4-8.7,0.4-13c0.1-4.3,0.1-8.6,0.1-13c0-2.3,0-4.5-0.1-6.6
	c-0.1-2.2-0.2-4.4-0.4-6.6c0.6,0.1,1.3,0.2,2.1,0.2c0.9,0.1,1.5,0.1,2,0.1h1l1.1-0.1l1.1-0.1c0.3,0,0.6-0.1,0.8-0.1
	c-0.1,0.8-0.1,1.6-0.2,2.4c-0.1,0.8-0.1,1.8-0.2,3c-0.1,1.2-0.1,2.6-0.1,4.4s0,3.9,0,6.6c1.4,0.1,2.9,0.1,4.3,0.2s2.9,0.1,4.3,0.1
	c1.8,0,3.5,0,5.2-0.1s3.4-0.1,5.2-0.2v-2c0-0.9,0-1.9,0-3c0-1.1,0-2.1-0.1-3c0-0.9,0-1.6,0-1.9v-1.2c0-0.3,0-0.7-0.1-1.1
	s-0.1-1-0.1-1.6s-0.1-1.5-0.1-2.5c0.5,0.1,1.2,0.2,2,0.2c0.8,0.1,1.5,0.1,2.2,0.1c0.5,0,1.2,0,2-0.1s1.5-0.1,2-0.2
	c-0.2,1.5-0.3,3.4-0.4,5.7c-0.1,2.3-0.2,4.7-0.2,7.2c-0.1,2.5-0.1,4.9-0.1,7.2c0,2.3,0,4.2,0,5.7c0,2.3,0,4.6,0.1,6.9
	c0,2.2,0.2,4.4,0.5,6.6l-2.1-0.2c-0.7-0.1-1.4-0.1-2.1-0.1c-0.7,0-1.3,0-2,0.1l-2,0.2c0-0.3,0-0.8,0.1-1.7s0.1-1.9,0.2-2.9
	c0.1-1.1,0.1-2.1,0.1-3.1c0-1,0.1-1.8,0.1-2.3L371.8,215.5z"/>
<path class="st0" d="M408.6,195c2.6,0,5.3,0.4,7.8,1.1c2.5,0.7,4.8,1.9,6.8,3.5c2,1.7,3.7,3.7,4.8,6.1c1.3,2.8,1.9,5.8,1.8,8.9
	c0,3-0.5,5.9-1.5,8.7c-1,2.5-2.4,4.7-4.3,6.6c-1.9,1.9-4.2,3.3-6.8,4.2c-2.8,1-5.8,1.6-8.8,1.5c-2.8,0-5.7-0.4-8.4-1.3
	c-2.5-0.8-4.8-2.1-6.8-3.8c-2-1.7-3.5-3.8-4.6-6.2c-1.1-2.6-1.7-5.5-1.7-8.4c-0.1-3.2,0.5-6.4,1.8-9.4c1.1-2.5,2.7-4.7,4.7-6.5
	c2-1.7,4.3-3,6.9-3.8C403,195.4,405.8,195,408.6,195z M394.9,215.3c0,2.1,0.2,4.3,0.7,6.3c0.4,2,1.2,3.9,2.4,5.6
	c1.1,1.6,2.5,3,4.2,4c1.9,1.1,4.1,1.6,6.3,1.5c2.2,0.1,4.3-0.5,6.2-1.5c1.7-1,3.1-2.4,4.2-4c1.1-1.7,1.9-3.6,2.4-5.6
	c0.5-2,0.7-4.1,0.8-6.2c0-2.2-0.2-4.5-0.7-6.6c-0.4-2-1.2-3.8-2.3-5.5c-1-1.6-2.5-2.9-4.2-3.8c-2-1-4.2-1.5-6.4-1.4
	c-2.2-0.1-4.4,0.5-6.3,1.6c-1.7,1.1-3.1,2.5-4.2,4.1c-1.1,1.7-1.9,3.6-2.4,5.6C395.2,211.3,394.9,213.3,394.9,215.3L394.9,215.3z"/>
<path class="st0" d="M457.4,195c2.6,0,5.3,0.4,7.8,1.1c2.5,0.7,4.8,1.9,6.8,3.5c2,1.7,3.7,3.7,4.8,6.1c1.3,2.8,1.9,5.8,1.8,8.9
	c0,3-0.5,5.9-1.5,8.7c-1,2.5-2.4,4.7-4.3,6.6c-1.9,1.9-4.2,3.3-6.8,4.2c-2.8,1-5.7,1.5-8.7,1.5c-2.8,0-5.7-0.4-8.4-1.3
	c-2.5-0.8-4.8-2.1-6.8-3.8c-2-1.7-3.5-3.8-4.6-6.2c-1.1-2.6-1.7-5.5-1.7-8.4c-0.1-3.2,0.5-6.4,1.8-9.4c1.1-2.5,2.7-4.7,4.7-6.5
	c2-1.7,4.3-3,6.8-3.8C451.8,195.4,454.6,195,457.4,195z M443.7,215.3c0,2.1,0.2,4.3,0.7,6.3c0.4,2,1.2,3.9,2.3,5.6
	c1.1,1.6,2.5,3,4.2,4c1.9,1.1,4.1,1.6,6.3,1.5c2.2,0.1,4.3-0.5,6.2-1.5c1.7-1,3.1-2.4,4.2-4c1.1-1.7,1.9-3.6,2.4-5.6
	c0.5-2,0.7-4.1,0.8-6.2c0-2.2-0.2-4.5-0.7-6.6c-0.4-2-1.2-3.8-2.3-5.5c-1-1.6-2.5-2.9-4.2-3.8c-2-1-4.2-1.5-6.4-1.4
	c-2.2-0.1-4.4,0.5-6.3,1.6c-1.7,1.1-3.1,2.5-4.2,4.1c-1.1,1.7-1.9,3.6-2.3,5.6C444,211.3,443.8,213.3,443.7,215.3L443.7,215.3z"/>
<path class="st0" d="M487,211.1v-1.6c0-0.5,0-1,0-1.5s0-1.2-0.1-2c0-0.8,0-1.8-0.1-3.1c0-0.3,0-0.8,0-1.5s0-1.5-0.1-2.2
	c0-0.8-0.1-1.5-0.1-2.2s0-1.2,0-1.5c0.7,0.1,1.3,0.2,2,0.3c0.6,0,1.3,0.1,2,0.1s1.4,0,2-0.1c0.6-0.1,1.3-0.1,2-0.3
	c-0.1,2.2-0.2,4.3-0.3,6.3s-0.1,4-0.2,6c-0.1,2-0.1,4-0.1,6s0,4.2,0,6.4c0,2,0,3.9,0.1,5.8c0,1.8,0.1,3.6,0.1,5.1h3.3
	c1.1,0,2.3,0,3.7-0.1c1.4,0,2.7-0.1,4-0.2c1.3-0.1,2.4-0.2,3.3-0.3c-0.1,0.3-0.1,0.6-0.2,0.9c-0.1,0.5-0.1,0.9-0.1,1.4
	c0,0.3,0,0.7,0.1,1c0.1,0.3,0.1,0.6,0.2,1l-2.5-0.1l-2.9-0.1l-3-0.1h-2.6c-1.8,0-3.6,0-5.3,0.1c-1.7,0.1-3.6,0.1-5.7,0.3
	c0-0.2,0-0.6,0-1.4s0-1.7,0.1-2.8c0-1.1,0.1-2.3,0.1-3.5c0-1.2,0.1-2.4,0.1-3.5c0-1.1,0.1-2.1,0.1-2.9c0-0.8,0-1.4,0-1.6L487,211.1
	L487,211.1z"/>
<path class="st0" d="M21.5,274.7c-0.5,0.3-1.1,0.5-1.7,0.6c-0.7,0.2-1.4,0.3-2.2,0.5c-0.9,0.1-1.7,0.2-2.6,0.2
	c-1.8,0-3.6-0.3-5.3-0.8c-1.6-0.5-3-1.4-4.2-2.5c-1.2-1.2-2.1-2.5-2.8-4.1c-1.3-3.5-1.3-7.5,0-11c0.6-1.6,1.6-2.9,2.8-4.1
	c1.2-1.1,2.7-2,4.3-2.5c1.8-0.6,3.7-0.9,5.5-0.9c1.5,0,2.9,0.2,4.4,0.5c1.2,0.3,2.4,0.7,3.5,1.2c-0.2,0.4-0.4,0.9-0.5,1.4
	c-0.1,0.6-0.2,1.1-0.3,1.5l-0.2,0.1c-0.3-0.4-0.6-0.7-1-1c-0.5-0.4-1-0.7-1.5-1c-0.6-0.4-1.3-0.6-2-0.9c-0.8-0.2-1.6-0.4-2.4-0.4
	c-1.4,0-2.7,0.2-4,0.7c-1.2,0.5-2.3,1.2-3.2,2.1c-1,1-1.7,2.3-2.1,3.6c-1,3.4-1,7,0,10.4c0.4,1.4,1.2,2.6,2.1,3.6
	c0.9,0.9,2,1.7,3.2,2.1c1.3,0.5,2.6,0.7,4,0.7c0.8,0,1.6-0.1,2.4-0.3c0.7-0.2,1.4-0.5,2-0.8c0.6-0.3,1.1-0.6,1.7-1
	c0.5-0.4,0.9-0.7,1.2-0.9l0.2,0.1l-0.3,2.1C22.2,274.3,21.9,274.5,21.5,274.7z"/>
<path class="st0" d="M27.5,255.3c-0.1-1.5-0.1-3.1-0.2-4.7l0.9,0.1c0.6,0.1,1.2,0.1,1.8,0l0.9-0.1c-0.1,1.6-0.1,3.2-0.2,4.7
	s-0.1,3.1-0.1,4.8v6.3c0,1.6,0,3.2,0.1,4.7s0.1,3.1,0.2,4.6c-0.6,0-1.2-0.1-1.8-0.1c-0.6,0-1.2,0-1.8,0.1c0.1-1.5,0.1-3,0.2-4.6
	c0.1-1.5,0.1-3.1,0.1-4.7V260C27.6,258.4,27.5,256.8,27.5,255.3z"/>
<path class="st0" d="M42.2,252.4h-2c-0.7,0-1.4,0-2.1,0.1l-2,0.1c-0.7,0-1.2,0.1-1.7,0.2c0.1-0.4,0.2-0.8,0.2-1.2
	c0-0.4-0.1-0.8-0.2-1.1l4.7,0.1c1.5,0,3.1,0,4.7,0s3.2,0,4.7,0l4.7-0.1c-0.1,0.4-0.2,0.8-0.2,1.2c0,0.4,0.1,0.8,0.2,1.1
	c-0.5-0.1-1.1-0.1-1.7-0.2l-2-0.1c-0.7,0-1.4-0.1-2.1-0.1h-2c-0.1,2.5-0.1,5-0.1,7.5v6.3c0,1.6,0,3.2,0.1,4.7
	c0.1,1.6,0.1,3.1,0.2,4.6c-0.6,0-1.2-0.1-1.8-0.1c-0.6,0-1.2,0-1.8,0.1c0.1-1.5,0.1-3,0.2-4.6s0.1-3.1,0.1-4.7V260
	C42.3,257.5,42.3,254.9,42.2,252.4z"/>
<path class="st0" d="M62,263.5l-1.6-2.6l-1.8-3l-1.8-3l-1.6-2.6l-1.1-1.7l1,0.1c0.7,0.1,1.3,0.1,2,0l1-0.1c1.1,2.1,2.2,4.2,3.3,6.2
	c1.1,2,2.3,4.2,3.6,6.4c0.6-0.9,1.1-1.8,1.8-2.9c0.6-1,1.2-2.1,1.8-3.2c0.6-1.1,1.2-2.2,1.8-3.3c0.6-1.1,1.1-2.2,1.6-3.2
	c0.9,0.2,1.9,0.2,2.8,0c-1.2,1.8-2.2,3.4-3.1,4.8c-0.9,1.4-1.7,2.7-2.4,3.9c-0.7,1.2-1.3,2.2-1.9,3.1c-0.5,0.9-1,1.8-1.4,2.5
	c0,0.9,0,1.9,0,2.9c0,1,0,2,0.1,3c0,1,0,1.9,0.1,2.7c0.1,0.8,0.1,1.5,0.1,2c-0.6,0-1.2-0.1-1.8-0.1s-1.2,0-1.8,0.1
	c0.1-1.3,0.2-2.8,0.2-4.6c0-1.8,0-3.7,0-5.6L62,263.5z"/>
<path class="st0" d="M107.4,254.4c0-1.3-0.1-2.6-0.2-3.9l0.8,0.1c0.2,0,0.5,0.1,0.7,0c0.4,0,0.7-0.1,1.1-0.2c-0.1,0.8-0.1,1.8-0.2,3
	c-0.1,1.2-0.1,2.4-0.2,3.8c0,1.3-0.1,2.7-0.1,4.1c-0.1,1.4-0.1,2.8-0.1,4.1c0,1.5-0.2,3-0.7,4.4c-0.4,1.2-1.1,2.3-2,3.3
	c-0.9,0.9-2,1.6-3.2,2c-1.4,0.5-2.9,0.7-4.4,0.7c-3.6,0-6.3-0.8-7.9-2.5s-2.5-4.2-2.5-7.8c0-1.1,0-2.1,0.1-3
	c0.1-0.9,0.1-1.8,0.1-2.7c0-2,0-3.8-0.1-5.4c0-1.6-0.1-2.9-0.1-4l0.9,0.1c0.3,0,0.6,0.1,0.9,0c0.3,0,0.5,0,0.8,0l0.8-0.1
	c0,0.5-0.1,1.2-0.1,2.1c-0.1,0.9-0.1,1.8-0.1,2.9c0,1.1-0.1,2.3-0.1,3.5c0,1.3,0,2.6,0,3.9c0,0.8,0,1.7,0,2.6c0,0.9,0.1,1.7,0.2,2.6
	c0.1,0.8,0.4,1.6,0.7,2.4c0.3,0.8,0.8,1.4,1.4,2c0.7,0.6,1.4,1.1,2.3,1.4c1.1,0.4,2.3,0.5,3.4,0.5c1.2,0,2.3-0.2,3.4-0.6
	c0.8-0.3,1.6-0.9,2.2-1.5c0.6-0.6,1-1.4,1.4-2.2c0.3-0.8,0.6-1.7,0.7-2.6c0.1-0.9,0.2-1.8,0.2-2.7c0-0.9,0-1.7,0-2.5
	C107.4,259,107.4,256.3,107.4,254.4z"/>
<path class="st0" d="M127.9,266.1c-3.2-3.4-6.3-6.8-9.5-10.1c0,0.7,0,1.6-0.1,2.7c0,1.2,0,2.7,0,4.7c0,0.5,0,1.1,0,1.9s0,1.5,0,2.4
	s0,1.7,0.1,2.5c0,0.8,0.1,1.6,0.1,2.4c0,0.7,0,1.4,0.1,1.9c0,0.5,0.1,0.9,0.1,1.1c-0.4-0.1-0.8-0.1-1.3-0.1c-0.5,0-0.9,0-1.4,0.1
	c0-0.2,0.1-0.7,0.2-1.4c0.1-0.7,0.1-1.4,0.2-2.4c0-0.9,0.1-1.9,0.2-3c0.1-1.1,0.1-2.2,0.1-3.2c0-1.1,0.1-2.1,0.1-3.1
	c0-1,0-1.9,0-2.7c0-2.3,0-4.3,0-6c0-1.7,0-2.9-0.1-3.8h0.6l4.8,5.1c1.7,1.8,3.4,3.6,5,5.4l4.7,5.1c1.5,1.6,2.8,2.9,3.9,4.1v-5
	c0-2.5,0-5-0.1-7.4c0-2.4-0.1-4.7-0.2-6.8c0.4,0.1,0.8,0.2,1.2,0.2c0.4,0,0.8-0.1,1.2-0.2c0,0.5-0.1,1.3-0.2,2.4s-0.1,2.2-0.2,3.4
	c-0.1,1.2-0.1,2.4-0.2,3.6c0,1.2-0.1,2.1-0.1,2.8v2.2c0,0.8,0,1.7,0,2.6s0,1.8,0,2.7c0,0.9,0,1.8,0,2.5s0,1.5,0,2.1v1.2h-0.5
	C134,272.8,131.1,269.5,127.9,266.1z"/>
<path class="st0" d="M144.2,255.3c-0.1-1.5-0.1-3.1-0.2-4.7l0.9,0.1c0.6,0.1,1.2,0.1,1.8,0l0.9-0.1c-0.1,1.6-0.1,3.2-0.2,4.7
	s-0.1,3.1-0.1,4.8v6.3c0,1.6,0,3.2,0.1,4.7c0.1,1.6,0.1,3.1,0.2,4.6c-0.6,0-1.2-0.1-1.8-0.1c-0.6,0-1.2,0-1.8,0.1
	c0.1-1.5,0.1-3,0.2-4.6c0.1-1.5,0.1-3.1,0.1-4.7V260C144.3,258.4,144.2,256.8,144.2,255.3z"/>
<path class="st0" d="M159.1,270.4c-0.8-2-1.7-4.1-2.6-6.4l-2.8-6.8c-1-2.3-1.9-4.5-2.8-6.6l1,0.1c0.6,0.1,1.2,0.1,1.8,0l1-0.1
	c0.5,1.6,1.1,3.3,1.8,5s1.3,3.5,2,5.4c0.7,1.8,1.4,3.7,2.2,5.5c0.8,1.9,1.5,3.7,2.3,5.6c0.4-1,0.9-2.1,1.4-3.3
	c0.5-1.2,1-2.5,1.5-3.8c0.5-1.3,1-2.7,1.5-4l1.5-4c0.5-1.3,0.9-2.4,1.3-3.5c0.4-1.1,0.7-2,1-2.8c0.9,0.2,1.8,0.2,2.7,0
	c-1.9,4.2-3.7,8.4-5.5,12.5s-3.4,8.3-5,12.4c-0.4,0-0.8-0.1-1.2-0.1c-0.4,0-0.8,0-1.2,0.1C160.6,274.1,159.9,272.4,159.1,270.4z"/>
<path class="st0" d="M177.7,255.2c-0.1-1.6-0.1-3.1-0.2-4.7l3.3,0.1c1.1,0,2.2,0,3.3,0s2.2,0,3.2,0l3.2-0.1c-0.1,0.7-0.1,1.5,0,2.2
	l-2.1-0.1l-2-0.1l-2.4-0.1c-0.8,0-1.9,0-3.1,0c0,0.8,0,1.5-0.1,2.2c-0.1,0.7-0.1,1.5,0,2.4c0,0.9,0,1.9,0,2.8s0,1.6,0,2
	c1.1,0,2,0,2.9,0l2.3-0.1l2-0.1l1.7-0.1c-0.1,0.4-0.1,0.8-0.1,1.1c0,0.4,0,0.7,0.1,1.1c-0.6-0.1-1.4-0.1-2.2-0.2
	c-0.8,0-1.7-0.1-2.5-0.1h-2.4h-1.8c0,0.2,0,0.5,0,0.7c0,0.3,0,0.6,0,1v3.6c0,1.4,0,2.5,0,3.4s0,1.6,0,2h2.6c0.9,0,1.8,0,2.7,0
	s1.7-0.1,2.5-0.1c0.7,0,1.4-0.1,2.1-0.3c-0.1,0.2-0.1,0.4-0.1,0.6c0,0.2,0,0.4,0,0.6c0,0.3,0,0.6,0.1,1c-1.1,0-2.2-0.1-3.3-0.1h-6.6
	c-1.1,0-2.2,0-3.3,0.1c0.1-1.6,0.1-3.1,0.2-4.6c0.1-1.5,0.1-3.1,0.1-4.7V260C177.8,258.4,177.7,256.8,177.7,255.2z"/>
<path class="st0" d="M195.4,255.3c-0.1-1.5-0.1-3.1-0.2-4.7l2.1,0.1c0.7,0,1.4,0,2.1,0s1.4,0,2.1-0.1s1.4-0.1,2.1-0.1
	c1,0,2,0.1,2.9,0.3c0.9,0.2,1.7,0.5,2.4,1c0.7,0.4,1.2,1,1.6,1.8c0.9,1.8,0.8,4-0.2,5.7c-0.5,0.8-1.1,1.5-1.9,2.1
	c-0.7,0.5-1.6,1-2.4,1.3c-0.8,0.3-1.5,0.5-2.4,0.6l1.2,1.5c0.5,0.7,1.1,1.4,1.7,2.2l2,2.5l2,2.5c0.6,0.8,1.2,1.5,1.8,2.2
	c0.6,0.7,1,1.2,1.4,1.5c-0.4,0-0.7-0.1-1.1-0.1h-2.1c-0.4,0-0.7,0-1.1,0.1l-1.7-2.3c-0.7-1-1.6-2.1-2.5-3.3
	c-0.9-1.2-1.8-2.3-2.8-3.5c-0.9-1.2-1.8-2.1-2.6-2.9h-1.4v2.7c0,1.6,0,3.2,0.1,4.7c0.1,1.6,0.1,3.1,0.2,4.6c-0.6,0-1.2-0.1-1.8-0.1
	s-1.2,0-1.8,0.1c0.1-1.5,0.1-3,0.2-4.6c0.1-1.5,0.1-3.1,0.1-4.7V260C195.5,258.4,195.5,256.8,195.4,255.3z M199.6,262.2
	c0.4,0,0.8,0,1.3,0c0.8,0,1.6-0.1,2.4-0.2c0.8-0.2,1.6-0.5,2.2-0.9c0.7-0.4,1.3-1,1.7-1.7c0.5-0.8,0.7-1.8,0.7-2.7
	c0-0.8-0.2-1.6-0.5-2.4c-0.3-0.6-0.8-1.1-1.4-1.5c-0.6-0.4-1.2-0.6-1.8-0.8c-0.6-0.1-1.3-0.2-1.9-0.2c-0.8,0-1.5,0-2.1,0
	c-0.6,0-1,0.1-1.4,0.1c0,1.3-0.1,2.7-0.1,4c-0.1,1.3-0.1,2.7,0,4v2C198.9,262.1,199.2,262.2,199.6,262.2L199.6,262.2z"/>
<path class="st0" d="M217.3,272.2c0.3,0.5,0.7,0.9,1.2,1.2c1.1,0.8,2.4,1.3,3.8,1.2c0.7,0,1.5-0.1,2.2-0.4c1.2-0.5,2.2-1.5,2.7-2.8
	c0.2-0.7,0.4-1.4,0.4-2.1c0.1-1-0.3-1.9-0.9-2.7c-0.6-0.7-1.3-1.2-2.1-1.6c-0.9-0.5-1.8-0.9-2.8-1.2c-1-0.4-1.9-0.8-2.8-1.4
	c-0.8-0.5-1.6-1.3-2.1-2.1c-0.6-1-0.9-2.2-0.9-3.4c0-1,0.2-1.9,0.5-2.8c0.4-0.8,0.9-1.6,1.6-2.2c0.7-0.6,1.6-1.1,2.5-1.4
	c1.1-0.4,2.2-0.5,3.3-0.5c1,0,2,0.1,3,0.4c0.9,0.3,1.7,0.7,2.4,1.3c-0.2,0.4-0.4,0.9-0.5,1.3c-0.1,0.5-0.3,1-0.4,1.8h-0.4
	c-0.1-0.4-0.3-0.8-0.5-1.1c-0.2-0.4-0.5-0.8-0.8-1.1c-0.4-0.4-0.8-0.6-1.3-0.9c-0.5-0.2-1.1-0.4-1.8-0.4c-0.6,0-1.3,0.1-1.9,0.3
	c-0.6,0.2-1.1,0.5-1.5,0.9c-0.4,0.4-0.8,0.9-1,1.4c-0.2,0.6-0.4,1.2-0.4,1.8c0,1,0.3,1.9,0.9,2.7c0.6,0.7,1.3,1.2,2.1,1.7
	c0.9,0.5,1.8,0.9,2.8,1.2c1,0.3,1.9,0.8,2.8,1.3c0.8,0.5,1.6,1.2,2.1,2c0.6,1,0.9,2.1,0.9,3.2c0,1.1-0.2,2.2-0.6,3.2
	c-0.4,1-1,1.9-1.8,2.6c-0.8,0.8-1.8,1.3-2.8,1.7c-1.2,0.4-2.5,0.6-3.8,0.6c-1.2,0-2.5-0.2-3.7-0.6c-0.8-0.4-1.6-0.9-2.3-1.4
	c0.2-0.5,0.3-1,0.5-1.5c0.1-0.4,0.2-1,0.2-1.7h0.4C216.7,271.3,217,271.7,217.3,272.2z"/>
<path class="st0" d="M235,255.3c-0.1-1.5-0.1-3.1-0.2-4.7l0.9,0.1c0.6,0.1,1.2,0.1,1.8,0l0.9-0.1c-0.1,1.6-0.1,3.2-0.2,4.7
	s-0.1,3.1-0.1,4.8v6.3c0,1.6,0,3.2,0.1,4.7s0.1,3.1,0.2,4.6c-0.6,0-1.2-0.1-1.8-0.1s-1.2,0-1.8,0.1c0.1-1.5,0.1-3,0.2-4.6
	c0.1-1.5,0.1-3.1,0.1-4.7V260C235.1,258.4,235,256.8,235,255.3z"/>
<path class="st0" d="M249.4,252.4h-2c-0.7,0-1.4,0-2.1,0.1l-2,0.1c-0.7,0-1.2,0.1-1.7,0.2c0.1-0.4,0.2-0.8,0.2-1.2
	c0-0.4-0.1-0.8-0.2-1.1l4.7,0.1c1.5,0,3.1,0,4.7,0c1.6,0,3.2,0,4.7,0l4.7-0.1c-0.1,0.4-0.2,0.8-0.2,1.2c0,0.4,0.1,0.8,0.2,1.1
	c-0.5-0.1-1.1-0.1-1.7-0.2l-2-0.1c-0.7,0-1.4-0.1-2.1-0.1h-2c-0.1,2.5-0.1,5-0.1,7.5v6.3c0,1.6,0,3.2,0.1,4.7
	c0.1,1.6,0.1,3.1,0.2,4.6c-0.6,0-1.2-0.1-1.8-0.1c-0.6,0-1.2,0-1.8,0.1c0.1-1.5,0.1-3,0.2-4.6c0.1-1.5,0.1-3.1,0.1-4.7V260
	C249.5,257.5,249.5,254.9,249.4,252.4z"/>
<path class="st0" d="M269.7,263.5l-1.6-2.6l-1.8-3l-1.8-3l-1.5-2.6l-1-1.7l1,0.1c0.7,0.1,1.3,0.1,2,0l1-0.1c1.1,2.1,2.2,4.2,3.3,6.2
	s2.3,4.2,3.6,6.4c0.6-0.9,1.1-1.8,1.8-2.9c0.6-1,1.2-2.1,1.8-3.2c0.6-1.1,1.2-2.2,1.8-3.3s1.1-2.2,1.6-3.2c0.9,0.2,1.9,0.2,2.8,0
	c-1.2,1.8-2.2,3.4-3.1,4.8c-0.9,1.4-1.7,2.7-2.4,3.9c-0.7,1.2-1.3,2.2-1.9,3.1c-0.5,0.9-1,1.8-1.4,2.5c0,0.9,0,1.9,0,2.9
	c0,1,0,2,0,3c0,1,0,1.9,0.1,2.7c0.1,0.8,0.1,1.5,0.1,2c-0.6,0-1.2-0.1-1.8-0.1c-0.6,0-1.2,0-1.8,0.1c0.1-1.3,0.2-2.8,0.2-4.6
	c0-1.8,0-3.7,0-5.6L269.7,263.5z"/>
<path class="st0" d="M295.2,257.6c0.6-1.6,1.6-2.9,2.8-4.1c1.2-1.1,2.7-2,4.3-2.5c3.6-1.2,7.4-1.2,11,0c1.6,0.5,3.1,1.4,4.3,2.5
	c1.2,1.1,2.2,2.5,2.8,4.1c1.3,3.5,1.3,7.5,0,11c-1.3,3.2-3.9,5.6-7.1,6.6c-3.6,1.1-7.4,1.1-11,0c-3.2-1-5.9-3.4-7.1-6.6
	C293.8,265,293.8,261.1,295.2,257.6z M317.1,257.9c-0.4-1.4-1.2-2.6-2.1-3.6c-0.9-0.9-2-1.7-3.2-2.1c-2.6-0.9-5.4-0.9-7.9,0
	c-1.2,0.5-2.3,1.2-3.2,2.1c-1,1-1.7,2.3-2.1,3.6c-1,3.4-1,7,0,10.4c0.4,1.4,1.2,2.6,2.1,3.6c0.9,0.9,2,1.7,3.2,2.1
	c2.6,0.9,5.4,0.9,7.9,0c1.2-0.5,2.3-1.2,3.2-2.1c1-1,1.7-2.3,2.1-3.6C318.1,264.9,318.1,261.3,317.1,257.9z"/>
<path class="st0" d="M326,255.3c-0.1-1.5-0.1-3.1-0.2-4.7l3.3,0.1c1.1,0,2.2,0,3.3,0s2.2,0,3.3,0l3.6-0.1c-0.1,0.7-0.1,1.5,0,2.2
	c-0.7-0.1-1.5-0.1-2.4-0.2c-0.9-0.1-1.9-0.1-2.8-0.1l-2.8-0.1h-2.2c0,0.8,0,1.7,0,2.4c0,0.8,0,1.6,0,2.3c0,0.8,0,1.6,0,2.4
	c0,0.7,0,1.5,0,2.2c1.6,0,3.2,0,4.8-0.1c1.6,0,3.1-0.1,4.6-0.3c-0.2,0.7-0.2,1.5,0,2.2c-0.6-0.1-1.3-0.1-2.1-0.2l-2.4-0.1
	c-0.8,0-1.7,0-2.5,0H329v3.1c0,1.6,0,3.2,0.1,4.7c0.1,1.6,0.1,3.1,0.2,4.6c-0.6,0-1.2-0.1-1.8-0.1c-0.6,0-1.2,0-1.8,0.1
	c0.1-1.5,0.1-3,0.2-4.6s0.1-3.1,0.1-4.7V260C326.1,258.4,326,256.8,326,255.3z"/>
<path class="st0" d="M353.4,255.3c-0.1-1.5-0.1-3.1-0.2-4.7l0.9,0.1c0.6,0.1,1.2,0.1,1.8,0l0.9-0.1c-0.1,1.6-0.1,3.2-0.2,4.7
	c-0.1,1.5-0.1,3.1-0.1,4.8c0,3.1,0,5.7,0,8s0,4.3,0.1,6c1.7,0,3.4,0,5,0c1.7,0,3.4-0.2,5.1-0.4c-0.1,0.4-0.2,0.7-0.2,1.1
	c0,0.3,0.1,0.7,0.2,1c-1.1,0-2.2-0.1-3.4-0.1h-6.7c-1.1,0-2.2,0-3.4,0.1c0.1-1.5,0.1-3,0.2-4.6c0.1-1.5,0.1-3.1,0.1-4.7V260
	C353.5,258.4,353.5,256.8,353.4,255.3z"/>
<path class="st0" d="M370.2,257.6c0.6-1.6,1.6-2.9,2.8-4.1c1.2-1.1,2.7-2,4.3-2.5c3.6-1.2,7.4-1.2,11,0c1.6,0.5,3.1,1.4,4.3,2.5
	c1.2,1.1,2.2,2.5,2.8,4.1c1.3,3.5,1.3,7.5,0,11c-1.3,3.2-3.9,5.6-7.1,6.6c-3.6,1.1-7.4,1.1-11,0c-3.2-1-5.9-3.4-7.1-6.6
	C368.9,265,368.9,261.1,370.2,257.6z M392.2,257.9c-0.4-1.4-1.2-2.6-2.1-3.6c-0.9-0.9-2-1.7-3.2-2.1c-2.6-0.9-5.4-0.9-7.9,0
	c-1.2,0.5-2.3,1.2-3.2,2.1c-1,1-1.7,2.3-2.1,3.6c-1,3.4-1,7,0,10.4c0.4,1.4,1.2,2.6,2.1,3.6c0.9,0.9,2,1.7,3.2,2.1
	c2.6,0.9,5.4,0.9,7.9,0c1.2-0.5,2.3-1.2,3.2-2.1c1-1,1.7-2.3,2.1-3.6C393.1,264.9,393,261.3,392.2,257.9L392.2,257.9z"/>
<path class="st0" d="M412.7,266.1c-3.2-3.4-6.3-6.8-9.5-10.1c0,0.7,0,1.6-0.1,2.7c0,1.2,0,2.7,0,4.7c0,0.5,0,1.1,0,1.9s0,1.5,0,2.4
	s0,1.7,0,2.5s0.1,1.6,0.1,2.4c0,0.7,0,1.4,0.1,1.9c0,0.5,0.1,0.9,0.1,1.1c-0.4-0.1-0.8-0.1-1.3-0.1c-0.5,0-0.9,0-1.4,0.1
	c0-0.2,0.1-0.7,0.2-1.4s0.1-1.4,0.2-2.4c0-0.9,0.1-1.9,0.2-3s0.1-2.2,0.1-3.2c0-1.1,0.1-2.1,0.1-3.1c0-1,0-1.9,0-2.7
	c0-2.3,0-4.3,0-6c0-1.7,0-2.9-0.1-3.8h0.6l4.8,5.1c1.7,1.8,3.4,3.6,5,5.4l4.7,5.1c1.5,1.6,2.8,2.9,3.9,4.1v-5c0-2.5,0-5,0-7.4
	s-0.1-4.7-0.2-6.8c0.4,0.1,0.8,0.2,1.2,0.2c0.4,0,0.8-0.1,1.2-0.2c0,0.5-0.1,1.3-0.2,2.4c-0.1,1.1-0.1,2.2-0.2,3.4
	c-0.1,1.2-0.1,2.4-0.2,3.6c0,1.2-0.1,2.1-0.1,2.8v2.2c0,0.8,0,1.7,0,2.6c0,0.9,0,1.8,0,2.7c0,0.9,0,1.8,0,2.5c0,0.8,0,1.5,0,2.1v1.2
	h-0.5C418.8,272.8,415.8,269.5,412.7,266.1z"/>
<path class="st0" d="M428.9,255.3c-0.1-1.5-0.1-3.1-0.2-4.7l2.8,0.1c0.9,0,1.8,0,2.8,0c0.9,0,1.8,0,2.8-0.1c0.9-0.1,1.8-0.1,2.8-0.1
	c1.9,0,3.7,0.2,5.5,0.8c1.4,0.5,2.7,1.3,3.7,2.4c1,1.1,1.7,2.4,2.1,3.8c0.5,1.6,0.7,3.3,0.7,5c0.1,2.1-0.4,4.2-1.3,6.1
	c-0.8,1.6-1.9,2.9-3.2,4c-1.3,1-2.7,1.7-4.3,2.2c-1.5,0.4-3,0.6-4.5,0.6c-0.8,0-1.6,0-2.4,0c-0.8,0-1.6,0-2.4,0h-2.4
	c-0.8,0-1.6,0-2.4,0.1c0.1-1.5,0.1-3,0.2-4.6c0.1-1.5,0.1-3.1,0.1-4.7V260C429,258.4,429,256.8,428.9,255.3z M432.2,273.9
	c0.7,0.1,1.4,0.2,2.1,0.3c0.9,0.1,1.8,0.1,2.7,0.1c1.3,0,2.7-0.2,4-0.5c1.3-0.3,2.5-0.9,3.6-1.8c1.1-1,2-2.2,2.6-3.6
	c1.3-3.6,1.3-7.5,0.2-11.1c-0.4-1.2-1.2-2.3-2.2-3.2c-0.9-0.8-2.1-1.4-3.3-1.6c-1.4-0.3-2.8-0.5-4.2-0.5c-1.1,0-2.1,0-3.1,0.1
	c-0.9,0.1-1.8,0.2-2.5,0.2c-0.1,1.2-0.1,2.4-0.2,3.7s0,2.6,0,3.9v6.3C432,268.9,432.1,271.4,432.2,273.9L432.2,273.9z"/>
<path class="st0" d="M455.8,257.6c0.6-1.6,1.6-2.9,2.8-4.1c1.2-1.1,2.7-2,4.3-2.5c3.6-1.2,7.4-1.2,11,0c1.6,0.5,3.1,1.4,4.3,2.5
	c1.2,1.1,2.2,2.5,2.8,4.1c1.3,3.5,1.3,7.5,0,11c-1.3,3.2-3.9,5.6-7.1,6.6c-3.6,1.1-7.4,1.1-11,0c-3.2-1-5.9-3.4-7.1-6.6
	C454.5,265,454.5,261.1,455.8,257.6z M477.8,257.9c-0.4-1.4-1.2-2.6-2.1-3.6c-0.9-0.9-2-1.7-3.2-2.1c-2.6-0.9-5.4-0.9-7.9,0
	c-1.2,0.5-2.3,1.2-3.2,2.1c-1,1-1.7,2.3-2.1,3.6c-1,3.4-1,7,0,10.4c0.4,1.4,1.2,2.6,2.1,3.6c0.9,0.9,2,1.7,3.2,2.1
	c2.6,0.9,5.4,0.9,7.9,0c1.2-0.5,2.3-1.2,3.2-2.1c1-1,1.7-2.3,2.1-3.6C478.8,264.9,478.8,261.3,477.8,257.9L477.8,257.9z"/>
<path class="st0" d="M498.3,266.1c-3.2-3.4-6.3-6.8-9.5-10.1c0,0.7,0,1.6-0.1,2.7c0,1.2,0,2.7,0,4.7c0,0.5,0,1.1,0,1.9s0,1.5,0,2.4
	s0,1.7,0,2.5s0.1,1.6,0.1,2.4c0,0.7,0,1.4,0.1,1.9c0,0.5,0.1,0.9,0.1,1.1c-0.4-0.1-0.8-0.1-1.3-0.1c-0.5,0-0.9,0-1.3,0.1
	c0-0.2,0.1-0.7,0.2-1.4s0.1-1.4,0.2-2.4c0-0.9,0.1-1.9,0.2-3s0.1-2.2,0.2-3.2c0-1.1,0.1-2.1,0.1-3.1c0-1,0-1.9,0-2.7
	c0-2.3,0-4.3,0-6c0-1.7,0-2.9-0.1-3.8h0.6l4.8,5.1c1.7,1.8,3.4,3.6,5,5.4l4.7,5.1c1.5,1.6,2.8,2.9,3.9,4.1v-5c0-2.5,0-5,0-7.4
	s-0.1-4.7-0.2-6.8c0.4,0.1,0.8,0.2,1.2,0.2c0.4,0,0.8-0.1,1.2-0.2c0,0.5-0.1,1.3-0.2,2.4c-0.1,1.1-0.1,2.2-0.2,3.4s-0.1,2.4-0.2,3.6
	c0,1.2-0.1,2.1-0.1,2.8v2.2c0,0.8,0,1.7,0,2.6c0,0.9,0,1.8,0,2.7c0,0.9,0,1.8,0,2.5c0,0.8,0,1.5,0,2.1v1.2h-0.5
	C504.4,272.8,501.5,269.5,498.3,266.1z"/>
<path class="st0" d="M71.6,277.7c1.6-1.8,2.9-3.8,4.1-5.9c-0.5,0-0.9,0-1.4,0c-0.4,0-0.8-0.1-1.1-0.2c-0.3,0.7-0.6,1.4-1,2.3
	c-0.4,0.8-0.8,1.8-1.3,2.8l-0.3,0.6C70.9,277.5,71.2,277.6,71.6,277.7z"/>
</svg>
