<svg id="Logo" xmlns="http://www.w3.org/2000/svg" viewBox="0 0 509.9 334.56"><defs><style>.cls-1{fill:#c00f23;}.cls-2{fill:#1d1d1b;}</style></defs><title>cass-business-school-responsive</title><path class="cls-1" d="M438.43,438.92l4.76-6.72c1.53-2.19,2.94-4.2,4.24-6.09s2.35-3.46,3.18-4.78a7.35,7.35,0,0,0,1.76.26,6.1,6.1,0,0,0,1.65-.26c-0.1,2.28-.19,4.84-0.26,7.69s-0.1,5.76-.1,8.76v5.69c1,0,1.94,0,2.85-.13s1.64-.19,2.22-0.29a5.84,5.84,0,0,0,0,3.42,18.55,18.55,0,0,0-2.22-.24c-0.91,0-1.85-.07-2.85-0.07v2.17c0,1.36,0,2.73.1,4.18s0.13,2.55.2,3.38c-0.68-.06-1.45-0.09-2.27-0.09s-1.58,0-2.28.09c0.08-.89.16-2,0.27-3.46s0.15-2.77.15-4.09v-2.17l-3.44,0-4.71.07c-1.64,0-3.2.08-4.67,0.13l-3.31.13v-0.94c1.51-2.13,3.09-4.36,4.73-6.66m11.3-12.83q-1.09,1.51-2.74,3.85l-3.41,4.86c-1.18,1.67-2.29,3.28-3.34,4.84s-1.87,2.84-2.46,3.83h12.06V426.09h-0.1Zm-39.9,28.3a6.81,6.81,0,0,0,2.74.57,7.54,7.54,0,0,0,4.78-1.55,11.52,11.52,0,0,0,3.24-4.06,21.57,21.57,0,0,0,1.83-5.61,32.75,32.75,0,0,0,.6-6.21h-0.1a9.66,9.66,0,0,1-3.23,3.51,9.17,9.17,0,0,1-5.15,1.35,10,10,0,0,1-7.37-2.66c-1.77-1.79-2.66-4.32-2.66-7.63a11.63,11.63,0,0,1,.81-4.4,10.13,10.13,0,0,1,2.29-3.5,10.94,10.94,0,0,1,3.62-2.32A12.54,12.54,0,0,1,416,421a12.22,12.22,0,0,1,4.43.81,9.31,9.31,0,0,1,3.66,2.59A13.13,13.13,0,0,1,426.6,429a21.59,21.59,0,0,1,1,6.9,30.23,30.23,0,0,1-1,8.06,20.92,20.92,0,0,1-3,6.57,14.17,14.17,0,0,1-4.78,4.34,13.19,13.19,0,0,1-6.44,1.55,11.44,11.44,0,0,1-2.44-.23,15.73,15.73,0,0,1-1.66-.44c-0.09-.38-0.25-0.85-0.44-1.39a8.94,8.94,0,0,0-.59-1.4l0.26-.15a8.86,8.86,0,0,0,2.38,1.55m11.09-29.47a6.22,6.22,0,0,0-5-2.24,6,6,0,0,0-5,2.51,11.18,11.18,0,0,0-1.89,6.9c0,3,.57,5.14,1.71,6.44a5.87,5.87,0,0,0,4.65,1.93,6,6,0,0,0,3.19-.83,7.53,7.53,0,0,0,2.29-2.17,10.45,10.45,0,0,0,1.43-3.11,13.65,13.65,0,0,0,.48-3.62,8.78,8.78,0,0,0-1.89-5.83m-44.28,15.81a10.59,10.59,0,0,1,5.77-4v-0.36a6.53,6.53,0,0,1-2-.81,7.77,7.77,0,0,1-1.84-1.5,7.16,7.16,0,0,1-1.34-2.15,6.73,6.73,0,0,1-.52-2.69,7.28,7.28,0,0,1,.7-3.13,8.33,8.33,0,0,1,2-2.6,9.46,9.46,0,0,1,3.05-1.81,11.34,11.34,0,0,1,4-.68,13.71,13.71,0,0,1,4.44.65,9.31,9.31,0,0,1,3,1.68,6.77,6.77,0,0,1,1.79,2.4,7.31,7.31,0,0,1,.59,2.88,7.79,7.79,0,0,1-1.47,4.57,8.19,8.19,0,0,1-4.31,3v0.36a12.69,12.69,0,0,1,2.17.64,8.35,8.35,0,0,1,2.46,1.51,8.77,8.77,0,0,1,2,2.61,8.64,8.64,0,0,1,.83,4,11.54,11.54,0,0,1-.91,4.65,10.51,10.51,0,0,1-2.48,3.54,10.16,10.16,0,0,1-3.68,2.2,13.51,13.51,0,0,1-4.46.73,17,17,0,0,1-4.55-.6,9.68,9.68,0,0,1-3.68-1.9,9,9,0,0,1-2.43-3.14,9.93,9.93,0,0,1-.89-4.3,10.35,10.35,0,0,1,1.73-5.79m15.13-14a5.85,5.85,0,0,0-1-2.09,5.19,5.19,0,0,0-1.73-1.45,6.16,6.16,0,0,0-5,0,4.85,4.85,0,0,0-1.73,1.45,6.05,6.05,0,0,0-1,2.09,10.36,10.36,0,0,0-.31,2.53,10.51,10.51,0,0,0,.31,2.52,6.12,6.12,0,0,0,1,2.12,5,5,0,0,0,1.73,1.45,6.16,6.16,0,0,0,5,0,5.3,5.3,0,0,0,1.73-1.45,5.91,5.91,0,0,0,1-2.12,10.1,10.1,0,0,0,.31-2.52,10,10,0,0,0-.31-2.53m1.16,16a8.52,8.52,0,0,0-1.39-2.73,6.63,6.63,0,0,0-8-1.81,6.38,6.38,0,0,0-2.19,1.81,8.46,8.46,0,0,0-1.4,2.73,12.54,12.54,0,0,0,0,7,8.5,8.5,0,0,0,1.4,2.74,6.59,6.59,0,0,0,8,1.8,6.52,6.52,0,0,0,2.2-1.8,8.56,8.56,0,0,0,1.39-2.74,12.52,12.52,0,0,0,0-7m-39.63-15a4.5,4.5,0,0,0-1.55-1.65v-0.36c2-.8,4-1.66,6-2.61s4-1.87,5.76-2.76l0.36,0.25q-0.2,3.42-.31,6.75c-0.07,2.22-.1,4.48-0.1,6.75v8.64q0,3.42.1,6.69t0.31,6.43a7.77,7.77,0,0,0-1.21-.09h-2.44a7.78,7.78,0,0,0-1.21.09c0.17-2.13.28-4.29,0.33-6.46s0.08-4.39.08-6.67V424.33ZM317.92,423l-2.83,0c-1,0-2,0-2.94.1s-1.93.11-2.85,0.18-1.73.16-2.46,0.26a6.29,6.29,0,0,0,.26-1.65,7,7,0,0,0-.26-1.6l6.68,0.18q3.26,0.07,6.68.07t6.66-.07l6.68-.18a7.12,7.12,0,0,0-.26,1.66,6.15,6.15,0,0,0,.26,1.6c-0.73-.1-1.54-0.2-2.45-0.26s-1.87-.13-2.85-0.18-2-.08-2.94-0.1l-2.82,0c-0.1,3.54-.16,7.11-0.16,10.71v8.89c0,2.28.05,4.51,0.14,6.72s0.18,4.38.29,6.51c-0.8-.06-1.64-0.09-2.53-0.09s-1.74,0-2.54.09c0.1-2.13.2-4.3,0.28-6.51s0.14-4.44.14-6.72v-8.89q0-5.4-.15-10.71m-35.07,28a8.29,8.29,0,0,0,1.71,1.72,8.46,8.46,0,0,0,5.35,1.77,7.75,7.75,0,0,0,3.08-.6,7,7,0,0,0,2.33-1.61,6.92,6.92,0,0,0,1.48-2.38,8.21,8.21,0,0,0,.51-2.91,5.59,5.59,0,0,0-1.22-3.78,10,10,0,0,0-3-2.32,35.62,35.62,0,0,0-3.91-1.72,20.23,20.23,0,0,1-3.9-1.93,10.48,10.48,0,0,1-3-3,8.51,8.51,0,0,1-1.22-4.85,9.92,9.92,0,0,1,.77-4,8.82,8.82,0,0,1,2.25-3.08,10.73,10.73,0,0,1,3.54-2,14,14,0,0,1,4.66-.73,13.62,13.62,0,0,1,4.28.6,10.72,10.72,0,0,1,3.37,1.82,11.87,11.87,0,0,0-.78,1.87c-0.21.66-.41,1.49-0.62,2.48h-0.62a13.86,13.86,0,0,0-.7-1.58,6,6,0,0,0-1.19-1.58,6.85,6.85,0,0,0-1.78-1.21,5.64,5.64,0,0,0-2.49-.49,7.23,7.23,0,0,0-2.65.46,6.58,6.58,0,0,0-2.12,1.31,6,6,0,0,0-1.4,2.06,6.73,6.73,0,0,0-.48,2.58,5.66,5.66,0,0,0,1.21,3.83,10.59,10.59,0,0,0,3,2.35,29.75,29.75,0,0,0,3.91,1.7,22,22,0,0,1,3.9,1.84,9.94,9.94,0,0,1,3,2.79,7.68,7.68,0,0,1,1.22,4.55,11.87,11.87,0,0,1-.86,4.5,10.68,10.68,0,0,1-2.48,3.7,11,11,0,0,1-4,2.43,15.7,15.7,0,0,1-5.35.86,13.35,13.35,0,0,1-5.2-.86,14,14,0,0,1-3.33-1.93,13.89,13.89,0,0,0,.65-2.15c0.12-.64.23-1.46,0.33-2.46h0.62a10.06,10.06,0,0,0,1.11,1.9M254.67,427q-0.13-3.31-.28-6.61l4.63,0.18c1.53,0,3.08.07,4.63,0.07s3.08,0,4.61-.07l4.6-.18a7.89,7.89,0,0,0-.15,1.55,8.17,8.17,0,0,0,.15,1.55l-3-.21-2.91-.2c-1-.07-2.12-0.13-3.33-0.19s-2.65-.07-4.34-0.07c0,1.11-.07,2.15-0.13,3.15s-0.08,2.14-.08,3.41,0,2.66,0,3.93,0,2.24,0,2.9c1.52,0,2.88,0,4.09-.06s2.31-.07,3.3-0.12l2.77-.15c0.84-.06,1.65-0.11,2.4-0.19a8.27,8.27,0,0,0-.15,1.6,8,8,0,0,0,.15,1.55q-1.34-.15-3.12-0.25t-3.57-.14l-3.36,0-2.51,0c0,0.32,0,.65,0,1s0,0.82,0,1.37v5.12q0,2.94,0,4.85c0,1.27,0,2.25.07,2.9h3.62c1.32,0,2.6,0,3.86-.08s2.45-.11,3.57-0.2a23.49,23.49,0,0,0,2.91-.39,3.83,3.83,0,0,0-.12.8c0,0.3,0,.56,0,0.8a5.2,5.2,0,0,0,.15,1.34q-2.32-.1-4.63-0.09h-9.39c-1.55,0-3.12,0-4.71.09,0.1-2.19.2-4.4,0.28-6.58s0.14-4.43.14-6.7v-8.9q0-3.4-.14-6.72" transform="translate(-101.59 -121.99)"/><path class="cls-1" d="M231.5,441.85H103.94a2,2,0,1,1,0-3.91H231.5A2,2,0,1,1,231.5,441.85Z" transform="translate(-101.59 -121.99)"/><path class="cls-1" d="M609.08,441.9H481.52a2,2,0,0,1,0-4H609.08A2,2,0,0,1,609.08,441.9Z" transform="translate(-101.59 -121.99)"/><path class="cls-1" d="M609.49,126H103.59a2,2,0,0,1,0-4h505.9A2,2,0,0,1,609.49,126Z" transform="translate(-101.59 -121.99)"/><path class="cls-2" d="M232.49,181.08h-2.18q-1.09-2-3.27-5.46a24.82,24.82,0,0,0-6.76-6.76,45.72,45.72,0,0,0-12.22-5.78q-7.64-2.5-19.42-2.51-27.49,0-41.68,17t-14.18,48.22q0,2.84.22,7.86a77.31,77.31,0,0,0,1.42,11.24A73,73,0,0,0,138.34,258a56,56,0,0,0,7.75,13.42,48.37,48.37,0,0,0,6.66,7.42,51.27,51.27,0,0,0,8.62,6.33,43.61,43.61,0,0,0,10.8,4.47,51,51,0,0,0,13.42,1.64A62.83,62.83,0,0,0,203.36,289a59.4,59.4,0,0,0,13.75-5.89,60.05,60.05,0,0,0,10.58-8A114.35,114.35,0,0,0,236,266.4l2.4,1.53-2.4,21.6q-24.88,13.75-55.21,13.75a91.41,91.41,0,0,1-30.11-4.91A71.8,71.8,0,0,1,125.9,284a67.85,67.85,0,0,1-16.8-23.67q-6.22-14.18-6.22-32.51A91,91,0,0,1,108,197a68,68,0,0,1,15.6-25.09q10.47-10.69,26.51-16.91T188,148.78a128,128,0,0,1,25.75,2.51,121.52,121.52,0,0,1,25.31,8.4Z" transform="translate(-101.59 -121.99)"/><path class="cls-2" d="M345.3,276l-9.16-23.13q-7-.44-14-0.66t-14-.22q-6.55,0-13.09.22t-13.09.66q-5.24,12.66-10,25.31t-7.42,22q-2.18-.44-5-0.87a36,36,0,0,0-5.46-.44,27.58,27.58,0,0,0-5.13.44l-4.69.87,25.31-56.3q8.29-18.54,14.84-33.28t11.46-26.29q4.91-11.56,8.29-20.4t5.35-15.6q1.74,0.44,3.49.76a20.14,20.14,0,0,0,3.71.33,26.37,26.37,0,0,0,7-1.09q3.93,11.13,8.18,22.26T340.4,192q4.26,10.26,8,19.31t6.76,15.82q3.05,7.2,7.2,16.47t8.51,19.2q4.36,9.93,8.73,19.75t8.07,17.67q-2.4-.22-7.42-0.76a89.58,89.58,0,0,0-9.6-.55,69.92,69.92,0,0,0-8.84.55q-4.25.55-7.31,0.76Zm-36-90.34L287,239.34q5.67,0.22,11.35.55t11.35,0.33q5,0,10-.22t10-.65Z" transform="translate(-101.59 -121.99)"/><path class="cls-2" d="M404.88,267.49a61.41,61.41,0,0,0,7.64,13.2,32.56,32.56,0,0,0,8.18,7.53,26.11,26.11,0,0,0,8.73,3.49,48.22,48.22,0,0,0,9.27.87,31.75,31.75,0,0,0,11.78-2.07,26.88,26.88,0,0,0,8.95-5.67,25.34,25.34,0,0,0,5.78-8.62,28.32,28.32,0,0,0,2.07-10.91,25,25,0,0,0-2.18-11,27.35,27.35,0,0,0-5.13-7.42,23.44,23.44,0,0,0-6-4.47q-3.06-1.52-4.58-2.18-4.58-2-11.24-4.58T426.91,231a71,71,0,0,1-13.2-7.42A35.19,35.19,0,0,1,405.2,215a30.77,30.77,0,0,1-4.47-10.26,53.91,53.91,0,0,1-1.31-12.33,50.35,50.35,0,0,1,2.4-14.95A36.88,36.88,0,0,1,410,163.4a43.85,43.85,0,0,1,15.6-10.47q9.82-4.14,24.66-4.15,12,0,20.08,2.62a148.83,148.83,0,0,1,16.15,6.33q-1.75,3.93-2.73,6.55T482.12,169q-0.65,2.08-1.2,4.26t-1.2,5.24h-3.05a22.46,22.46,0,0,0-10.26-14.18,34.47,34.47,0,0,0-18.33-4.8q-12.88,0-19.31,7A23.64,23.64,0,0,0,422.33,183a20.06,20.06,0,0,0,8,17,40,40,0,0,0,9.49,5.46q5.67,2.4,12.87,5.24,6.33,2.4,10.8,4.25t8,3.6a41.41,41.41,0,0,1,6,3.6,34.93,34.93,0,0,1,4.91,4.47,34.21,34.21,0,0,1,5.56,7.75,42.46,42.46,0,0,1,3.16,8,52.33,52.33,0,0,1,1.53,7.42,48,48,0,0,1,.44,5.67,49.52,49.52,0,0,1-3.05,16.8,42.76,42.76,0,0,1-9.71,15.38,50.48,50.48,0,0,1-17.13,11.24q-10.47,4.36-25.53,4.36a69.77,69.77,0,0,1-13.2-1.2,85.91,85.91,0,0,1-11.35-2.95q-5.13-1.74-9.27-3.6t-7-3.38q1.31-4.14,2.18-7.09a47.87,47.87,0,0,0,1.31-5.56q0.43-2.62.76-5.35t0.76-6.66h3.05Z" transform="translate(-101.59 -121.99)"/><path class="cls-2" d="M522,267.49a61.41,61.41,0,0,0,7.64,13.2,32.56,32.56,0,0,0,8.18,7.53,26.11,26.11,0,0,0,8.73,3.49,48.22,48.22,0,0,0,9.27.87,31.75,31.75,0,0,0,11.78-2.07,26.88,26.88,0,0,0,8.95-5.67,25.34,25.34,0,0,0,5.78-8.62,28.32,28.32,0,0,0,2.07-10.91,25,25,0,0,0-2.18-11,27.35,27.35,0,0,0-5.13-7.42,23.44,23.44,0,0,0-6-4.47q-3.06-1.52-4.58-2.18-4.58-2-11.24-4.58T544.09,231a71,71,0,0,1-13.2-7.42,35.19,35.19,0,0,1-8.51-8.62,30.77,30.77,0,0,1-4.47-10.26,53.91,53.91,0,0,1-1.31-12.33,50.35,50.35,0,0,1,2.4-14.95,36.88,36.88,0,0,1,8.18-14.07,43.85,43.85,0,0,1,15.6-10.47q9.82-4.14,24.66-4.15,12,0,20.08,2.62a148.83,148.83,0,0,1,16.15,6.33q-1.75,3.93-2.73,6.55T599.29,169q-0.65,2.08-1.2,4.26t-1.2,5.24h-3.05a22.46,22.46,0,0,0-10.26-14.18,34.47,34.47,0,0,0-18.33-4.8q-12.88,0-19.31,7A23.64,23.64,0,0,0,539.51,183a20.06,20.06,0,0,0,8,17,40,40,0,0,0,9.49,5.46q5.67,2.4,12.87,5.24,6.33,2.4,10.8,4.25t8,3.6a41.41,41.41,0,0,1,6,3.6,34.93,34.93,0,0,1,4.91,4.47,34.21,34.21,0,0,1,5.56,7.75,42.46,42.46,0,0,1,3.16,8,52.33,52.33,0,0,1,1.53,7.42,48,48,0,0,1,.44,5.67,49.52,49.52,0,0,1-3.05,16.8,42.76,42.76,0,0,1-9.71,15.38,50.48,50.48,0,0,1-17.13,11.24q-10.47,4.36-25.53,4.36a69.77,69.77,0,0,1-13.2-1.2,85.91,85.91,0,0,1-11.35-2.95q-5.13-1.74-9.27-3.6t-7-3.38q1.31-4.14,2.18-7.09a47.87,47.87,0,0,0,1.31-5.56q0.43-2.62.76-5.35t0.76-6.66H522Z" transform="translate(-101.59 -121.99)"/><path class="cls-2" d="M129.58,345.91a9.45,9.45,0,0,1-.4,2.86,10.23,10.23,0,0,1-1,2.21,9,9,0,0,1-1.15,1.55l-0.92.95a10,10,0,0,1-1.4,1.15,10.55,10.55,0,0,1-2,1.06,15.12,15.12,0,0,1-2.89.8,22.31,22.31,0,0,1-4,.32q-1.83,0-3.61-.14t-3.61-.14q-1.38,0-2.75.11t-2.75.17q0.23-5,.32-10.34t0.09-10q0-4.75-.09-9.48T103,317.49q1.09,0.12,2.06.17t2.92,0.11q0.46,0,1.6-.06t2.41-.09q1.26,0,2.38-.09c0.75,0,1.27-.06,1.58-0.06a24.79,24.79,0,0,1,4.56.4,11,11,0,0,1,3.81,1.43,7.48,7.48,0,0,1,2.64,2.81,9.5,9.5,0,0,1,1,4.58,7.19,7.19,0,0,1-.86,3.55,9.1,9.1,0,0,1-2.23,2.67,11.83,11.83,0,0,1-3.09,1.8,14.31,14.31,0,0,1-3.5.92,26,26,0,0,1,4.41.8,10.62,10.62,0,0,1,3.61,1.75,8.14,8.14,0,0,1,2.44,3A10.84,10.84,0,0,1,129.58,345.91Zm-19.2-11.52,1.2,0.09c0.38,0,.76,0,1.15,0a8,8,0,0,0,5.79-1.92,7.54,7.54,0,0,0,2-5.7,7,7,0,0,0-1.55-4.73,5.64,5.64,0,0,0-4.53-1.8q-2,0-4,.17-0.06,1.15-.09,2.32t0,2.32v9.23Zm0,14.44q0,0.69,0,2.12t0.09,2.64l1.55,0.23a9.39,9.39,0,0,0,1.55.11,8.81,8.81,0,0,0,6.25-2q2.18-2,2.18-6.22a10.6,10.6,0,0,0-.69-4.1,6.65,6.65,0,0,0-1.92-2.64,7.21,7.21,0,0,0-3-1.4,18,18,0,0,0-4-.4,13.29,13.29,0,0,0-2.06.17v11.52Z" transform="translate(-101.59 -121.99)"/><path class="cls-2" d="M144.19,321.85q-0.11,3.27-.14,7.16t0,7.62q0,3.44.06,5.64t0.23,3.64a10.27,10.27,0,0,0,.52,2.35,7.34,7.34,0,0,0,1,1.78,8.14,8.14,0,0,0,3.5,2.58,13.83,13.83,0,0,0,5.27.92,11,11,0,0,0,6-1.63,8.49,8.49,0,0,0,3.52-4.27,8.85,8.85,0,0,0,.32-1.06,11.41,11.41,0,0,0,.23-1.52q0.09-.92.14-2.15t0.06-3q0-5.61-.09-11.2t-0.43-11.2l1.26,0.23a7.37,7.37,0,0,0,1.32.11,8.39,8.39,0,0,0,1.38-.11l1.32-.23-0.17,2.75q-0.12,1.84-.2,4.79t-0.14,6.16q-0.06,3.21-.11,6.3t-0.12,5.27a26.16,26.16,0,0,1-.43,4.41,12.81,12.81,0,0,1-1.12,3.35,9.9,9.9,0,0,1-1.8,2.52,14.74,14.74,0,0,1-2.49,2,13.62,13.62,0,0,1-4.67,1.89,23.69,23.69,0,0,1-5,.57,29.63,29.63,0,0,1-5.27-.49,17.07,17.07,0,0,1-5-1.72,12.26,12.26,0,0,1-4-3.38,11.29,11.29,0,0,1-2.12-5.47,9.37,9.37,0,0,1-.11-1.63v-17q0-1.09,0-2.43t-0.06-2.72q0-1.38-.09-2.72t-0.12-2.44l2,0.23a18.21,18.21,0,0,0,2,.11,16,16,0,0,0,1.92-.11l1.8-.23Z" transform="translate(-101.59 -121.99)"/><path class="cls-2" d="M178.4,348.2a16.16,16.16,0,0,0,2,3.47,8.55,8.55,0,0,0,2.15,2,6.87,6.87,0,0,0,2.29.92,12.72,12.72,0,0,0,2.44.23,8.34,8.34,0,0,0,3.09-.54,7,7,0,0,0,2.35-1.49,6.65,6.65,0,0,0,1.52-2.26,7.45,7.45,0,0,0,.54-2.87,6.57,6.57,0,0,0-.57-2.89,7.18,7.18,0,0,0-1.35-1.95,6.18,6.18,0,0,0-1.58-1.17q-0.8-.4-1.2-0.57-1.2-.52-3-1.2t-3-1.2a18.63,18.63,0,0,1-3.47-1.95,9.24,9.24,0,0,1-2.23-2.26,8.09,8.09,0,0,1-1.17-2.69,14.19,14.19,0,0,1-.34-3.24,13.22,13.22,0,0,1,.63-3.92,9.68,9.68,0,0,1,2.15-3.7,11.52,11.52,0,0,1,4.1-2.75,16.74,16.74,0,0,1,6.47-1.09,17.29,17.29,0,0,1,5.27.69,39,39,0,0,1,4.24,1.66q-0.46,1-.72,1.72t-0.43,1.23q-0.17.54-.32,1.12t-0.31,1.38h-0.8a5.9,5.9,0,0,0-2.69-3.72,9,9,0,0,0-4.81-1.26,6.57,6.57,0,0,0-5.07,1.83A6.21,6.21,0,0,0,183,326a5.65,5.65,0,0,0,.54,2.61,5.72,5.72,0,0,0,1.55,1.86,10.51,10.51,0,0,0,2.49,1.43q1.49,0.63,3.38,1.38,1.66,0.63,2.84,1.12t2.09,0.95a11,11,0,0,1,1.58.95,9.16,9.16,0,0,1,1.29,1.17,9,9,0,0,1,1.46,2,11.19,11.19,0,0,1,.83,2.09,13.68,13.68,0,0,1,.4,1.95,12.62,12.62,0,0,1,.12,1.49,13,13,0,0,1-.8,4.41,11.22,11.22,0,0,1-2.55,4,13.25,13.25,0,0,1-4.5,3,17.44,17.44,0,0,1-6.7,1.15,18.37,18.37,0,0,1-3.47-.31,22.78,22.78,0,0,1-3-.77q-1.35-.46-2.43-0.95t-1.83-.89q0.34-1.09.57-1.86a12.51,12.51,0,0,0,.34-1.46c0.08-.46.14-0.93,0.2-1.4s0.12-1.06.2-1.75h0.8Z" transform="translate(-101.59 -121.99)"/><path class="cls-2" d="M210,330.73q0-2.75-.06-5.9t-0.52-7.33q0.8,0.12,2.12.23t1.95,0.11a18.22,18.22,0,0,0,2-.11l2.06-.23q-0.23,1.6-.37,4.1t-0.2,5.3q-0.06,2.81-.06,5.59v5q0,6.42.12,11.14t0.46,8.22q-1-.06-2-0.2a14.55,14.55,0,0,0-2-.14,15.81,15.81,0,0,0-2.06.14q-1.09.14-2.06,0.2,0.46-5.16.54-11.92T210,330.73Z" transform="translate(-101.59 -121.99)"/><path class="cls-2" d="M227.62,333.59q0-4.07,0-8.08t-0.09-8c0.23,0,.46.07,0.69,0.09s0.46,0,.69,0,0.45,0,.66,0l0.66-.09,4.07,4.41q2,2.18,4.13,4.35t4.41,4.5q2.29,2.32,4.87,4.84l6.76,6.65q0.8,0.8,1.35,1.26t1.52,1.2V332q0-3.67-.2-7.31t-0.49-7.19l1.09,0.23a7.13,7.13,0,0,0,1.38.11,6.69,6.69,0,0,0,1.35-.11l1.06-.23q-0.17,2.58-.32,4.76t-0.2,4.38q-0.06,2.21-.09,4.64t0,5.59v3.27q0,2,0,4.15t0,4.1v4.24q0,0.75,0,1.58t0,1.6v1.29l-0.57-.09a5.63,5.63,0,0,0-.57,0l-0.6,0a5.83,5.83,0,0,0-.6.09l-4.15-4.38q-2.32-2.43-4.84-5t-5.16-5.21q-2.64-2.64-5.1-5T234.78,333q-2.12-2-3.61-3.41v5.24q0,2.32,0,4.41t0.06,4.1q0,2,.09,4.3,0,1.26,0,2.09t0.09,1.75q0.06,0.92.14,2.15t0.26,3.18q-0.46-.06-1.2-0.2a7.32,7.32,0,0,0-1.38-.14,6.13,6.13,0,0,0-1.2.11l-1.09.23,0.46-8c0-.38.07-0.91,0.09-1.58s0-1.38.06-2.12,0-1.45,0-2.12v-9.43Z" transform="translate(-101.59 -121.99)"/><path class="cls-2" d="M278.33,334.51h2.72q1.63,0,3.41-.06t3.44-.14q1.66-.09,2.81-0.2c-0.08.31-.14,0.62-0.2,0.95a6.55,6.55,0,0,0-.09,1.12,5.21,5.21,0,0,0,.29,1.95q-1.15-.11-2.24-0.17l-2.18-.11-4-.09-4,0v15.53l2.09,0,3.5-.09L288,353q2.15-.06,4-0.17a4.78,4.78,0,0,0-.29,1.89,6.22,6.22,0,0,0,.29,2.06q-5.16-.34-10.54-0.34-5.23,0-10.77.34,0.11-1.83.17-3.58t0.11-3.58q0.06-1.26.09-3.07t0.06-3.67q0-1.86.06-3.55t0-2.66q0-.92,0-3.21t-0.09-5.13q-0.06-2.84-.14-5.76t-0.26-5.1l2.36,0.11,2.74,0.12,2.8,0.09,2.53,0q2,0,4.73-.11l5.82-.23-0.2.92a4.37,4.37,0,0,0-.09.92,6.13,6.13,0,0,0,.29,2.12l-5.39-.29-1.4-.09q-0.6,0-1.4,0h-5.16v13.46Z" transform="translate(-101.59 -121.99)"/><path class="cls-2" d="M299.36,348.2a16.16,16.16,0,0,0,2,3.47,8.55,8.55,0,0,0,2.15,2,6.87,6.87,0,0,0,2.29.92,12.72,12.72,0,0,0,2.44.23,8.34,8.34,0,0,0,3.09-.54,7,7,0,0,0,2.35-1.49,6.65,6.65,0,0,0,1.52-2.26,7.45,7.45,0,0,0,.54-2.87,6.57,6.57,0,0,0-.57-2.89,7.18,7.18,0,0,0-1.35-1.95,6.18,6.18,0,0,0-1.58-1.17q-0.8-.4-1.2-0.57-1.2-.52-3-1.2t-3-1.2a18.63,18.63,0,0,1-3.47-1.95,9.24,9.24,0,0,1-2.23-2.26,8.09,8.09,0,0,1-1.17-2.69,14.19,14.19,0,0,1-.34-3.24,13.22,13.22,0,0,1,.63-3.92,9.68,9.68,0,0,1,2.15-3.7,11.52,11.52,0,0,1,4.1-2.75,16.74,16.74,0,0,1,6.47-1.09,17.29,17.29,0,0,1,5.27.69,39,39,0,0,1,4.24,1.66q-0.46,1-.72,1.72t-0.43,1.23q-0.17.54-.32,1.12T319,324.82h-0.8a5.9,5.9,0,0,0-2.69-3.72,9,9,0,0,0-4.81-1.26,6.57,6.57,0,0,0-5.07,1.83,6.21,6.21,0,0,0-1.69,4.35,5.65,5.65,0,0,0,.54,2.61A5.72,5.72,0,0,0,306,330.5a10.51,10.51,0,0,0,2.49,1.43q1.49,0.63,3.38,1.38,1.66,0.63,2.84,1.12t2.09,0.95a11,11,0,0,1,1.58.95,9.16,9.16,0,0,1,1.29,1.17,9,9,0,0,1,1.46,2,11.19,11.19,0,0,1,.83,2.09,13.68,13.68,0,0,1,.4,1.95,12.62,12.62,0,0,1,.12,1.49,13,13,0,0,1-.8,4.41,11.22,11.22,0,0,1-2.55,4,13.25,13.25,0,0,1-4.5,3,17.44,17.44,0,0,1-6.7,1.15,18.37,18.37,0,0,1-3.47-.31,22.78,22.78,0,0,1-3-.77q-1.35-.46-2.43-0.95t-1.83-.89q0.34-1.09.57-1.86a12.51,12.51,0,0,0,.34-1.46c0.08-.46.14-0.93,0.2-1.4s0.12-1.06.2-1.75h0.8Z" transform="translate(-101.59 -121.99)"/><path class="cls-2" d="M330.13,348.2a16.16,16.16,0,0,0,2,3.47,8.55,8.55,0,0,0,2.15,2,6.87,6.87,0,0,0,2.29.92,12.72,12.72,0,0,0,2.44.23,8.34,8.34,0,0,0,3.09-.54,7,7,0,0,0,2.35-1.49A6.65,6.65,0,0,0,346,350.5a7.45,7.45,0,0,0,.54-2.87,6.57,6.57,0,0,0-.57-2.89,7.18,7.18,0,0,0-1.35-1.95,6.18,6.18,0,0,0-1.58-1.17q-0.8-.4-1.2-0.57-1.2-.52-3-1.2t-3-1.2a18.63,18.63,0,0,1-3.47-1.95,9.24,9.24,0,0,1-2.23-2.26,8.09,8.09,0,0,1-1.17-2.69,14.19,14.19,0,0,1-.34-3.24,13.22,13.22,0,0,1,.63-3.92,9.68,9.68,0,0,1,2.15-3.7,11.52,11.52,0,0,1,4.1-2.75A16.74,16.74,0,0,1,342,317a17.29,17.29,0,0,1,5.27.69,39,39,0,0,1,4.24,1.66q-0.46,1-.72,1.72t-0.43,1.23q-0.17.54-.32,1.12t-0.31,1.38H349a5.9,5.9,0,0,0-2.69-3.72,9,9,0,0,0-4.81-1.26,6.57,6.57,0,0,0-5.07,1.83,6.21,6.21,0,0,0-1.69,4.35,5.65,5.65,0,0,0,.54,2.61,5.72,5.72,0,0,0,1.55,1.86,10.51,10.51,0,0,0,2.49,1.43q1.49,0.63,3.38,1.38,1.66,0.63,2.84,1.12t2.09,0.95a11,11,0,0,1,1.58.95,9.16,9.16,0,0,1,1.29,1.17,9,9,0,0,1,1.46,2,11.19,11.19,0,0,1,.83,2.09,13.68,13.68,0,0,1,.4,1.95,12.62,12.62,0,0,1,.12,1.49,13,13,0,0,1-.8,4.41,11.22,11.22,0,0,1-2.55,4,13.25,13.25,0,0,1-4.5,3,17.44,17.44,0,0,1-6.7,1.15,18.37,18.37,0,0,1-3.47-.31,22.78,22.78,0,0,1-3-.77q-1.35-.46-2.43-0.95t-1.83-.89q0.34-1.09.57-1.86a12.51,12.51,0,0,0,.34-1.46c0.08-.46.14-0.93,0.2-1.4s0.12-1.06.2-1.75h0.8Z" transform="translate(-101.59 -121.99)"/><path class="cls-2" d="M375.79,348.2a16.16,16.16,0,0,0,2,3.47,8.55,8.55,0,0,0,2.15,2,6.87,6.87,0,0,0,2.29.92,12.72,12.72,0,0,0,2.44.23,8.34,8.34,0,0,0,3.09-.54,7,7,0,0,0,2.35-1.49,6.65,6.65,0,0,0,1.52-2.26,7.45,7.45,0,0,0,.54-2.87,6.57,6.57,0,0,0-.57-2.89,7.18,7.18,0,0,0-1.35-1.95,6.18,6.18,0,0,0-1.58-1.17q-0.8-.4-1.2-0.57-1.2-.52-3-1.2t-3-1.2a18.63,18.63,0,0,1-3.47-1.95,9.24,9.24,0,0,1-2.23-2.26,8.09,8.09,0,0,1-1.17-2.69,14.19,14.19,0,0,1-.34-3.24,13.22,13.22,0,0,1,.63-3.92,9.68,9.68,0,0,1,2.15-3.7,11.52,11.52,0,0,1,4.1-2.75,16.74,16.74,0,0,1,6.47-1.09,17.29,17.29,0,0,1,5.27.69,39,39,0,0,1,4.24,1.66q-0.46,1-.72,1.72t-0.43,1.23q-0.17.54-.32,1.12t-0.31,1.38h-0.8A5.9,5.9,0,0,0,392,321.1a9,9,0,0,0-4.81-1.26,6.57,6.57,0,0,0-5.07,1.83,6.21,6.21,0,0,0-1.69,4.35,5.65,5.65,0,0,0,.54,2.61,5.72,5.72,0,0,0,1.55,1.86,10.51,10.51,0,0,0,2.49,1.43q1.49,0.63,3.38,1.38,1.66,0.63,2.84,1.12t2.09,0.95a11,11,0,0,1,1.58.95,9.16,9.16,0,0,1,1.29,1.17,9,9,0,0,1,1.46,2,11.19,11.19,0,0,1,.83,2.09,13.68,13.68,0,0,1,.4,1.95,12.62,12.62,0,0,1,.12,1.49,13,13,0,0,1-.8,4.41,11.22,11.22,0,0,1-2.55,4,13.25,13.25,0,0,1-4.5,3,17.44,17.44,0,0,1-6.7,1.15,18.37,18.37,0,0,1-3.47-.31,22.78,22.78,0,0,1-3-.77q-1.35-.46-2.43-0.95t-1.83-.89q0.34-1.09.57-1.86a12.51,12.51,0,0,0,.34-1.46c0.08-.46.14-0.93,0.2-1.4s0.12-1.06.2-1.75h0.8Z" transform="translate(-101.59 -121.99)"/><path class="cls-2" d="M438.77,325.51h-0.57q-0.29-.52-0.86-1.43a6.53,6.53,0,0,0-1.78-1.78,12,12,0,0,0-3.21-1.52,16.62,16.62,0,0,0-5.1-.66q-7.22,0-10.94,4.47t-3.72,12.66q0,0.75.06,2.06a20.27,20.27,0,0,0,.37,3,19.23,19.23,0,0,0,1,3.44,14.72,14.72,0,0,0,2,3.52,12.71,12.71,0,0,0,1.75,1.95,13.47,13.47,0,0,0,2.26,1.66,11.43,11.43,0,0,0,2.84,1.17,13.36,13.36,0,0,0,3.52.43,16.49,16.49,0,0,0,4.67-.6,15.58,15.58,0,0,0,3.61-1.55,15.78,15.78,0,0,0,2.78-2.09,30,30,0,0,0,2.18-2.29l0.63,0.4L439.68,354a29.47,29.47,0,0,1-14.5,3.61,24,24,0,0,1-7.91-1.29,18.86,18.86,0,0,1-6.5-3.78,17.82,17.82,0,0,1-4.41-6.22,21.07,21.07,0,0,1-1.63-8.54,23.91,23.91,0,0,1,1.35-8.08,17.85,17.85,0,0,1,4.1-6.59,19.39,19.39,0,0,1,7-4.44,27.45,27.45,0,0,1,9.94-1.63,33.61,33.61,0,0,1,6.76.66,31.89,31.89,0,0,1,6.65,2.21Z" transform="translate(-101.59 -121.99)"/><path class="cls-2" d="M473.37,337.49q-2.34-.11-4.63-0.17t-4.63-.06q-2.46,0-4.88.06t-4.88.17v5.73q0,2.75,0,4.73t0.12,3.5q0.08,1.52.17,2.75t0.2,2.61q-0.63-.06-1.69-0.2a16.89,16.89,0,0,0-2.26-.14,18,18,0,0,0-2,.11l-2,.23q0.34-6.59.43-13t0.09-13q0-3.38-.14-6.65t-0.43-6.59q0.86,0.12,2.15.23t2,0.11l1,0,1.15-.09,1.06-.12c0.32,0,.58-0.08.77-0.11q-0.12,1.2-.2,2.38t-0.17,3q-0.09,1.78-.12,4.38t0,6.62q2.17,0.12,4.31.17t4.31,0.06q2.63,0,5.2-.06t5.2-.17v-2q0-1.4,0-3t-0.06-3q0-1.4,0-1.92v-1.17c0-.32,0-0.71-0.06-1.15s-0.08-1-.11-1.6-0.08-1.48-.12-2.55q0.81,0.12,2,.23t2.2,0.11q0.81,0,2-.11t2-.23q-0.29,2.23-.43,5.7t-0.23,7.19q-0.09,3.73-.12,7.19t0,5.7q0,3.44.06,6.93a50.29,50.29,0,0,0,.52,6.59l-2.1-.23a19.81,19.81,0,0,0-2.11-.11,18,18,0,0,0-2,.11l-2,.23q0-.4.09-1.72t0.17-2.92q0.09-1.6.14-3.12t0.06-2.32Z" transform="translate(-101.59 -121.99)"/><path class="cls-2" d="M510.22,317a27.65,27.65,0,0,1,7.82,1.12,19.35,19.35,0,0,1,6.79,3.52,17.7,17.7,0,0,1,4.78,6.1,20,20,0,0,1,1.8,8.85,23.21,23.21,0,0,1-1.55,8.68,18.73,18.73,0,0,1-4.35,6.59,19.4,19.4,0,0,1-6.76,4.21A24.52,24.52,0,0,1,510,357.6a26.48,26.48,0,0,1-8.37-1.29,19.81,19.81,0,0,1-6.79-3.78,17.57,17.57,0,0,1-4.56-6.16,20.05,20.05,0,0,1-1.66-8.37,23.12,23.12,0,0,1,1.75-9.4,18.39,18.39,0,0,1,4.7-6.53,19,19,0,0,1,6.85-3.81A27.21,27.21,0,0,1,510.22,317Zm-13.7,20.28a28.17,28.17,0,0,0,.72,6.33,16.49,16.49,0,0,0,2.35,5.56,12.93,12.93,0,0,0,4.18,4,12.06,12.06,0,0,0,6.27,1.52,11.78,11.78,0,0,0,6.22-1.55,13,13,0,0,0,4.18-4,17.63,17.63,0,0,0,2.38-5.59,26.38,26.38,0,0,0,.75-6.19,30,30,0,0,0-.72-6.65,16.6,16.6,0,0,0-2.29-5.53,11.5,11.5,0,0,0-4.15-3.78A13.17,13.17,0,0,0,510,320a11.56,11.56,0,0,0-6.27,1.6,13.48,13.48,0,0,0-4.18,4.13,17.5,17.5,0,0,0-2.35,5.62A26.58,26.58,0,0,0,496.52,337.32Z" transform="translate(-101.59 -121.99)"/><path class="cls-2" d="M559,317a27.65,27.65,0,0,1,7.82,1.12,19.35,19.35,0,0,1,6.79,3.52,17.7,17.7,0,0,1,4.78,6.1,20,20,0,0,1,1.8,8.85,23.21,23.21,0,0,1-1.55,8.68,18.73,18.73,0,0,1-4.35,6.59,19.4,19.4,0,0,1-6.76,4.21,24.52,24.52,0,0,1-8.71,1.49,26.48,26.48,0,0,1-8.37-1.29,19.81,19.81,0,0,1-6.79-3.78,17.57,17.57,0,0,1-4.56-6.16,20.05,20.05,0,0,1-1.66-8.37,23.12,23.12,0,0,1,1.75-9.4,18.39,18.39,0,0,1,4.7-6.53,19,19,0,0,1,6.85-3.81A27.21,27.21,0,0,1,559,317Zm-13.7,20.28a28.17,28.17,0,0,0,.72,6.33,16.49,16.49,0,0,0,2.35,5.56,12.93,12.93,0,0,0,4.18,4,12.06,12.06,0,0,0,6.27,1.52,11.78,11.78,0,0,0,6.22-1.55,13,13,0,0,0,4.18-4,17.63,17.63,0,0,0,2.38-5.59,26.38,26.38,0,0,0,.75-6.19,30,30,0,0,0-.72-6.65,16.6,16.6,0,0,0-2.29-5.53,11.5,11.5,0,0,0-4.15-3.78,13.17,13.17,0,0,0-6.36-1.4,11.56,11.56,0,0,0-6.27,1.6,13.48,13.48,0,0,0-4.18,4.13,17.5,17.5,0,0,0-2.35,5.62A26.58,26.58,0,0,0,545.34,337.32Z" transform="translate(-101.59 -121.99)"/><path class="cls-2" d="M588.6,333.13v-1.6q0-.69,0-1.52t-0.06-2q0-1.17-.09-3.07,0-.46,0-1.52t-0.09-2.24q-0.06-1.17-.09-2.23t0-1.46a13.83,13.83,0,0,0,2,.29q0.89,0.06,2,.06t2-.09q0.92-.09,2-0.26-0.17,3.27-.26,6.29t-0.17,6q-0.09,3-.11,6.05t0,6.37q0,3,.06,5.77t0.11,5.14h3.32q1.66,0,3.7-.06t4-.19q2-.13,3.27-0.32c-0.08.31-.14,0.6-0.2,0.89a8,8,0,0,0-.09,1.4,6.94,6.94,0,0,0,.06,1,7.3,7.3,0,0,0,.23.95l-2.49-.11-2.89-.12-3-.09-2.61,0q-2.75,0-5.27.09t-5.67.26q0-.23,0-1.37t0.09-2.78q0.06-1.63.09-3.5t0.09-3.52q0.06-1.66.09-2.89c0-.82,0-1.35,0-1.58v-8Z" transform="translate(-101.59 -121.99)"/><path class="cls-2" d="M123.08,396.69a9.82,9.82,0,0,1-1.71.62q-1,.27-2.24.49a14.84,14.84,0,0,1-2.58.22,16.61,16.61,0,0,1-5.31-.82,11.19,11.19,0,0,1-4.2-2.49,11.71,11.71,0,0,1-2.76-4.09,15.68,15.68,0,0,1,0-11,11.49,11.49,0,0,1,2.8-4.09,12.07,12.07,0,0,1,4.31-2.55,16.72,16.72,0,0,1,5.53-.87,18.25,18.25,0,0,1,4.38.49,20.62,20.62,0,0,1,3.51,1.18,4.8,4.8,0,0,0-.47,1.38c-0.12.58-.22,1.07-0.29,1.46l-0.22.07a8.12,8.12,0,0,0-1-1,11.27,11.27,0,0,0-1.53-1.05,9.69,9.69,0,0,0-2-.86,7.93,7.93,0,0,0-2.4-.35,11.22,11.22,0,0,0-4,.69,8.48,8.48,0,0,0-3.2,2.13,9.92,9.92,0,0,0-2.13,3.64,18.21,18.21,0,0,0,0,10.44,9.91,9.91,0,0,0,2.13,3.64,8.45,8.45,0,0,0,3.2,2.13,11.22,11.22,0,0,0,4,.69,8.54,8.54,0,0,0,2.42-.33,13,13,0,0,0,2-.78,12.31,12.31,0,0,0,1.67-1q0.75-.53,1.25-0.93l0.15,0.15L124.12,396A4.73,4.73,0,0,1,123.08,396.69Z" transform="translate(-101.59 -121.99)"/><path class="cls-2" d="M129.05,377.25q-0.09-2.31-.2-4.71l0.91,0.13a7,7,0,0,0,1.75,0l0.91-.13q-0.11,2.4-.2,4.71T132.13,382v6.26q0,2.4.09,4.73t0.2,4.58q-0.84-.07-1.78-0.07t-1.78.07q0.11-2.26.2-4.58t0.09-4.73V382Q129.14,379.57,129.05,377.25Z" transform="translate(-101.59 -121.99)"/><path class="cls-2" d="M143.77,374.43l-2,0q-1,0-2.07.07l-2,.13q-1,.07-1.73.18a4.42,4.42,0,0,0,.18-1.16,5,5,0,0,0-.18-1.13l4.69,0.13q2.29,0.05,4.69.05t4.69-.05l4.69-.13a5.08,5.08,0,0,0-.18,1.16,4.32,4.32,0,0,0,.18,1.13c-0.51-.07-1.09-0.13-1.73-0.18l-2-.13q-1-.05-2.07-0.07l-2,0q-0.11,3.75-.11,7.53v6.26q0,2.4.09,4.73t0.2,4.58q-0.84-.07-1.78-0.07t-1.78.07q0.11-2.26.2-4.58t0.09-4.73V382Q143.88,378.18,143.77,374.43Z" transform="translate(-101.59 -121.99)"/><path class="cls-2" d="M163.62,385.51l-1.56-2.62-1.8-3-1.8-3-1.55-2.58-1.05-1.73,1,0.13a9.19,9.19,0,0,0,2,0l1-.13q1.64,3.17,3.33,6.22t3.58,6.37q0.84-1.31,1.75-2.87t1.82-3.2q0.91-1.64,1.75-3.29t1.56-3.22a5.63,5.63,0,0,0,2.84,0q-1.75,2.66-3.13,4.8t-2.44,3.89q-1.05,1.75-1.86,3.15t-1.38,2.53q0,1.35,0,2.87t0.05,3q0,1.47.09,2.73t0.13,2q-0.84-.07-1.78-0.07t-1.78.07q0.22-1.89.25-4.58t0-5.64Z" transform="translate(-101.59 -121.99)"/><path class="cls-2" d="M209,376.4a37.46,37.46,0,0,0-.18-3.86l0.76,0.13a4.93,4.93,0,0,0,.73.05,3.94,3.94,0,0,0,1.09-.18q-0.11,1.27-.22,3T211,379.36q-0.07,2-.15,4.15t-0.11,4.13A13.15,13.15,0,0,1,210,392a9.14,9.14,0,0,1-2,3.27,8.41,8.41,0,0,1-3.22,2,12.85,12.85,0,0,1-4.38.69q-5.46,0-7.93-2.47T190,387.72q0-1.71.09-3t0.09-2.71q0-3.06-.07-5.42t-0.15-4l0.95,0.13a9,9,0,0,0,.95.05,5.57,5.57,0,0,0,.78-0.05l0.78-.13q-0.07.8-.15,2.09t-0.15,2.93q-0.07,1.64-.11,3.53t0,3.93q0,1.24,0,2.57a17.94,17.94,0,0,0,.25,2.58,10.71,10.71,0,0,0,.71,2.4,5.91,5.91,0,0,0,1.4,2,6.43,6.43,0,0,0,2.29,1.35,10.28,10.28,0,0,0,3.42.49,8.58,8.58,0,0,0,3.37-.58,6.4,6.4,0,0,0,2.24-1.53,7,7,0,0,0,1.36-2.18,12.26,12.26,0,0,0,.71-2.58,20.23,20.23,0,0,0,.25-2.69q0-1.35,0-2.47Q209,379.2,209,376.4Z" transform="translate(-101.59 -121.99)"/><path class="cls-2" d="M229.53,388.1Q224.8,383,220.07,378q0,1-.07,2.73t0,4.66q0,0.76,0,1.89t0,2.37q0,1.24.05,2.51t0.07,2.37q0,1.09.07,1.91t0.07,1.11a10,10,0,0,0-1.27-.07,11.29,11.29,0,0,0-1.35.07q0.07-.36.16-1.35t0.16-2.35q0.07-1.37.16-3t0.15-3.2q0.06-1.6.09-3.13t0-2.73q0-3.49,0-6t-0.09-3.75h0.58l4.75,5.15q2.53,2.75,5,5.42l4.73,5.06q2.24,2.38,3.91,4.06v-4.95q0-3.82-.05-7.44T237,372.54a5.25,5.25,0,0,0,1.24.18,5.08,5.08,0,0,0,1.16-.18q-0.07.8-.16,2.4t-0.18,3.42q-0.09,1.82-.16,3.57t-0.07,2.8v2.18q0,1.24,0,2.58t0,2.71q0,1.36,0,2.55t0,2.06V398h-0.51Q234.26,393.17,229.53,388.1Z" transform="translate(-101.59 -121.99)"/><path class="cls-2" d="M245.74,377.25q-0.09-2.31-.2-4.71l0.91,0.13a7,7,0,0,0,1.75,0l0.91-.13q-0.11,2.4-.2,4.71T248.82,382v6.26q0,2.4.09,4.73t0.2,4.58q-0.84-.07-1.78-0.07t-1.78.07q0.11-2.26.2-4.58t0.09-4.73V382Q245.84,379.57,245.74,377.25Z" transform="translate(-101.59 -121.99)"/><path class="cls-2" d="M260.68,392.37q-1.2-3-2.56-6.37l-2.8-6.84q-1.44-3.49-2.75-6.62l1,0.13a7.59,7.59,0,0,0,1.82,0l1-.13q0.8,2.4,1.77,5t2,5.37q1.07,2.73,2.2,5.53t2.29,5.57q0.65-1.49,1.42-3.33t1.55-3.82q0.78-2,1.55-4l1.47-3.95q0.71-1.89,1.29-3.53t1-2.84a5.08,5.08,0,0,0,2.69,0q-2.84,6.33-5.46,12.55t-5,12.44a9.42,9.42,0,0,0-1.2-.07,8,8,0,0,0-1.2.07Q261.88,395.39,260.68,392.37Z" transform="translate(-101.59 -121.99)"/><path class="cls-2" d="M279.26,377.2q-0.09-2.33-.2-4.66l3.26,0.13q1.62,0.05,3.26.05t3.24-.05l3.24-.13a5.55,5.55,0,0,0,0,2.18l-2.13-.15-2-.15-2.35-.13q-1.27-.05-3.06-0.05,0,1.16-.09,2.22t-0.05,2.4q0,1.42,0,2.77t0,2q1.6,0,2.88,0l2.33-.09,1.95-.11,1.69-.13a5.78,5.78,0,0,0-.11,1.13,5.6,5.6,0,0,0,.11,1.09q-0.95-.11-2.2-0.18t-2.51-.09l-2.37,0-1.76,0q0,0.33,0,.71t0,1v3.6q0,2.07,0,3.42t0.05,2H285q1.38,0,2.71-.05t2.51-.15a16.43,16.43,0,0,0,2.06-.27,2.62,2.62,0,0,0-.09.56c0,0.21,0,.39,0,0.56a3.36,3.36,0,0,0,.11.95q-1.64-.07-3.26-0.07h-6.6q-1.64,0-3.31.07,0.11-2.33.2-4.64t0.09-4.71v-6.26Q279.35,379.53,279.26,377.2Z" transform="translate(-101.59 -121.99)"/><path class="cls-2" d="M297,377.25q-0.09-2.31-.2-4.71l2.07,0.13q1,0.05,2.07.05t2.07-.09q1-.09,2.07-0.09a14.1,14.1,0,0,1,2.91.29,7.1,7.1,0,0,1,2.42,1,4.87,4.87,0,0,1,1.64,1.76,6.31,6.31,0,0,1-.18,5.73,7.32,7.32,0,0,1-1.91,2.07,9.48,9.48,0,0,1-2.42,1.27,12.1,12.1,0,0,1-2.35.6l1.2,1.53q0.76,1,1.71,2.17l2,2.47,2,2.47q0.95,1.18,1.78,2.17t1.35,1.49a8,8,0,0,0-1.09-.07H312a7.27,7.27,0,0,0-1.06.07l-1.66-2.29q-1.11-1.53-2.46-3.27T304,388.5q-1.4-1.73-2.57-2.93h-1.38v2.66q0,2.4.09,4.73t0.2,4.58q-0.84-.07-1.78-0.07t-1.78.07q0.11-2.26.2-4.58t0.09-4.73V382Q297.11,379.57,297,377.25Zm4.18,6.93q0.6,0,1.33,0a11.41,11.41,0,0,0,2.35-.25,6.81,6.81,0,0,0,2.24-.89,5.32,5.32,0,0,0,1.69-1.71,5,5,0,0,0,.67-2.71,4.7,4.7,0,0,0-.53-2.35,4.21,4.21,0,0,0-1.37-1.47,5.21,5.21,0,0,0-1.82-.75,9.68,9.68,0,0,0-1.93-.2q-1.27,0-2.11.05t-1.42.13q-0.07,2-.15,4T300.09,382V384A7.4,7.4,0,0,0,301.2,384.19Z" transform="translate(-101.59 -121.99)"/><path class="cls-2" d="M318.88,394.14a6,6,0,0,0,1.2,1.22,6.09,6.09,0,0,0,3.77,1.24,5.38,5.38,0,0,0,2.17-.42,4.83,4.83,0,0,0,2.67-2.8,5.78,5.78,0,0,0,.36-2.06,3.91,3.91,0,0,0-.86-2.66,7.05,7.05,0,0,0-2.13-1.64,24.91,24.91,0,0,0-2.75-1.2,14.19,14.19,0,0,1-2.75-1.37,7.26,7.26,0,0,1-2.13-2.09,6,6,0,0,1-.86-3.42,6.9,6.9,0,0,1,.55-2.78,6.07,6.07,0,0,1,1.58-2.17,7.49,7.49,0,0,1,2.49-1.42,9.86,9.86,0,0,1,3.28-.51,9.73,9.73,0,0,1,3,.42,7.52,7.52,0,0,1,2.37,1.29,7.86,7.86,0,0,0-.55,1.31q-0.22.69-.44,1.75h-0.44a9.44,9.44,0,0,0-.49-1.11,4.24,4.24,0,0,0-.84-1.11,4.67,4.67,0,0,0-1.26-.86,4,4,0,0,0-1.75-.35,5.21,5.21,0,0,0-1.87.33,4.51,4.51,0,0,0-1.49.93,4.12,4.12,0,0,0-1,1.44,4.72,4.72,0,0,0-.35,1.82,4,4,0,0,0,.86,2.69,7.3,7.3,0,0,0,2.13,1.66,20.83,20.83,0,0,0,2.75,1.2,15.56,15.56,0,0,1,2.75,1.29,7,7,0,0,1,2.13,2,5.42,5.42,0,0,1,.85,3.2,8.41,8.41,0,0,1-.6,3.17,7.45,7.45,0,0,1-1.75,2.6,7.77,7.77,0,0,1-2.8,1.71,11,11,0,0,1-3.77.6,9.39,9.39,0,0,1-3.66-.6A10,10,0,0,1,317,396a8.64,8.64,0,0,0,.45-1.51q0.13-.67.24-1.73h0.44A7.29,7.29,0,0,0,318.88,394.14Z" transform="translate(-101.59 -121.99)"/><path class="cls-2" d="M336.57,377.25q-0.09-2.31-.2-4.71l0.91,0.13a7,7,0,0,0,1.75,0l0.91-.13q-0.11,2.4-.2,4.71T339.64,382v6.26q0,2.4.09,4.73t0.2,4.58q-0.84-.07-1.78-0.07t-1.78.07q0.11-2.26.2-4.58t0.09-4.73V382Q336.66,379.57,336.57,377.25Z" transform="translate(-101.59 -121.99)"/><path class="cls-2" d="M351,374.43l-2,0q-1,0-2.07.07l-2,.13q-1,.07-1.73.18a4.42,4.42,0,0,0,.18-1.16,5,5,0,0,0-.18-1.13l4.69,0.13q2.29,0.05,4.69.05t4.69-.05l4.69-.13a5.08,5.08,0,0,0-.18,1.16,4.32,4.32,0,0,0,.18,1.13c-0.51-.07-1.09-0.13-1.73-0.18l-2-.13q-1-.05-2.07-0.07l-2,0q-0.11,3.75-.11,7.53v6.26q0,2.4.09,4.73t0.2,4.58q-0.84-.07-1.78-0.07t-1.78.07q0.11-2.26.2-4.58t0.09-4.73V382Q351.1,378.18,351,374.43Z" transform="translate(-101.59 -121.99)"/><path class="cls-2" d="M371.32,385.51l-1.56-2.62-1.8-3-1.8-3-1.55-2.58-1.05-1.73,1,0.13a9.19,9.19,0,0,0,2,0l1-.13q1.64,3.17,3.33,6.22t3.58,6.37q0.84-1.31,1.75-2.87t1.82-3.2q0.91-1.64,1.75-3.29t1.56-3.22a5.63,5.63,0,0,0,2.84,0q-1.75,2.66-3.13,4.8t-2.44,3.89q-1.05,1.75-1.86,3.15t-1.38,2.53q0,1.35,0,2.87t0.05,3q0,1.47.09,2.73t0.13,2q-0.84-.07-1.78-0.07t-1.78.07q0.22-1.89.25-4.58t0-5.64Z" transform="translate(-101.59 -121.99)"/><path class="cls-2" d="M396.75,379.58a11.49,11.49,0,0,1,2.8-4.09,12.07,12.07,0,0,1,4.31-2.55,17.82,17.82,0,0,1,11,0,12.07,12.07,0,0,1,4.31,2.55,11.5,11.5,0,0,1,2.8,4.09,15.68,15.68,0,0,1,0,11,11.23,11.23,0,0,1-7.11,6.59,19,19,0,0,1-11,0,11.23,11.23,0,0,1-7.11-6.59A15.68,15.68,0,0,1,396.75,379.58Zm21.92,0.29a9.92,9.92,0,0,0-2.13-3.64,8.48,8.48,0,0,0-3.2-2.13,11.72,11.72,0,0,0-7.93,0,8.48,8.48,0,0,0-3.2,2.13,9.92,9.92,0,0,0-2.13,3.64,18.21,18.21,0,0,0,0,10.44,9.91,9.91,0,0,0,2.13,3.64,8.45,8.45,0,0,0,3.2,2.13,11.72,11.72,0,0,0,7.93,0,8.46,8.46,0,0,0,3.2-2.13,9.91,9.91,0,0,0,2.13-3.64A18.23,18.23,0,0,0,418.67,379.87Z" transform="translate(-101.59 -121.99)"/><path class="cls-2" d="M427.57,377.25q-0.09-2.31-.2-4.71l3.26,0.13q1.62,0.05,3.26.05t3.31-.05l3.64-.13a5.5,5.5,0,0,0,0,2.18q-1-.11-2.37-0.2t-2.82-.15l-2.77-.09-2.2,0q0,1.27-.05,2.44t0,2.33q0,1.27,0,2.35t0,2.24q2.4,0,4.75-.07t4.64-.29a4.17,4.17,0,0,0,0,2.18q-0.91-.11-2.06-0.16l-2.38-.09q-1.24,0-2.51,0h-2.44v3.09q0,2.4.09,4.73t0.2,4.58q-0.84-.07-1.78-0.07t-1.78.07q0.11-2.26.2-4.58t0.09-4.73V382Q427.66,379.57,427.57,377.25Z" transform="translate(-101.59 -121.99)"/><path class="cls-2" d="M455,377.25q-0.09-2.31-.2-4.71l0.91,0.13a7,7,0,0,0,1.75,0l0.91-.13q-0.11,2.4-.2,4.71T458.08,382q0,4.58,0,8t0.07,6q2.58,0,4.95-.05a46.91,46.91,0,0,0,5.09-.42,4.23,4.23,0,0,0-.18,1.09,3.41,3.41,0,0,0,.18,1q-1.67-.07-3.35-0.07h-6.71q-1.62,0-3.37.07,0.11-2.26.2-4.58t0.09-4.73V382Q455.1,379.57,455,377.25Z" transform="translate(-101.59 -121.99)"/><path class="cls-2" d="M471.82,379.58a11.49,11.49,0,0,1,2.8-4.09,12.07,12.07,0,0,1,4.31-2.55,17.82,17.82,0,0,1,11,0,12.07,12.07,0,0,1,4.31,2.55,11.5,11.5,0,0,1,2.8,4.09,15.68,15.68,0,0,1,0,11,11.23,11.23,0,0,1-7.11,6.59,19,19,0,0,1-11,0,11.23,11.23,0,0,1-7.11-6.59A15.68,15.68,0,0,1,471.82,379.58Zm21.92,0.29a9.92,9.92,0,0,0-2.13-3.64,8.48,8.48,0,0,0-3.2-2.13,11.72,11.72,0,0,0-7.93,0,8.48,8.48,0,0,0-3.2,2.13,9.92,9.92,0,0,0-2.13,3.64,18.21,18.21,0,0,0,0,10.44,9.91,9.91,0,0,0,2.13,3.64,8.45,8.45,0,0,0,3.2,2.13,11.72,11.72,0,0,0,7.93,0,8.46,8.46,0,0,0,3.2-2.13,9.91,9.91,0,0,0,2.13-3.64A18.23,18.23,0,0,0,493.74,379.87Z" transform="translate(-101.59 -121.99)"/><path class="cls-2" d="M514.3,388.1q-4.73-5.08-9.46-10.1,0,1-.07,2.73t0,4.66q0,0.76,0,1.89t0,2.37q0,1.24.05,2.51t0.07,2.37q0,1.09.07,1.91t0.07,1.11a10,10,0,0,0-1.27-.07,11.29,11.29,0,0,0-1.35.07q0.07-.36.16-1.35t0.16-2.35q0.07-1.37.16-3t0.15-3.2q0.06-1.6.09-3.13t0-2.73q0-3.49,0-6t-0.09-3.75h0.58l4.75,5.15q2.53,2.75,5,5.42l4.73,5.06q2.24,2.38,3.91,4.06v-4.95q0-3.82-.05-7.44t-0.24-6.82a5.25,5.25,0,0,0,1.24.18,5.08,5.08,0,0,0,1.16-.18q-0.07.8-.16,2.4t-0.18,3.42q-0.09,1.82-.16,3.57t-0.07,2.8v2.18q0,1.24,0,2.58t0,2.71q0,1.36,0,2.55t0,2.06V398h-0.51Q519,393.17,514.3,388.1Z" transform="translate(-101.59 -121.99)"/><path class="cls-2" d="M530.51,377.25q-0.09-2.31-.2-4.71l2.75,0.13q1.36,0.05,2.75.05t2.75-.09q1.36-.09,2.75-0.09a15.91,15.91,0,0,1,5.48.84,9.56,9.56,0,0,1,3.73,2.38,9.37,9.37,0,0,1,2.13,3.78,17.5,17.5,0,0,1,.67,5,13.53,13.53,0,0,1-1.26,6.13,11.7,11.7,0,0,1-3.2,4,12,12,0,0,1-4.29,2.17,17.15,17.15,0,0,1-4.49.64q-1.24,0-2.44,0t-2.44,0h-2.44q-1.2,0-2.44.07,0.11-2.26.2-4.58t0.09-4.73V382Q530.6,379.57,530.51,377.25Zm3.29,18.68a13.26,13.26,0,0,0,2.07.27q1.31,0.09,2.69.09a17.35,17.35,0,0,0,4-.47,8.67,8.67,0,0,0,3.58-1.78,9.54,9.54,0,0,0,2.58-3.58,17.73,17.73,0,0,0,.22-11.08,7.92,7.92,0,0,0-2.15-3.22,7.61,7.61,0,0,0-3.26-1.64,17.77,17.77,0,0,0-4.15-.45q-1.64,0-3.06.11t-2.55.25q-0.11,1.75-.16,3.66T533.58,382v6.26Q533.58,392.16,533.8,395.94Z" transform="translate(-101.59 -121.99)"/><path class="cls-2" d="M557.43,379.58a11.49,11.49,0,0,1,2.8-4.09,12.07,12.07,0,0,1,4.31-2.55,17.82,17.82,0,0,1,11,0,12.07,12.07,0,0,1,4.31,2.55,11.5,11.5,0,0,1,2.8,4.09,15.68,15.68,0,0,1,0,11,11.23,11.23,0,0,1-7.11,6.59,19,19,0,0,1-11,0,11.23,11.23,0,0,1-7.11-6.59A15.68,15.68,0,0,1,557.43,379.58Zm21.92,0.29a9.92,9.92,0,0,0-2.13-3.64,8.48,8.48,0,0,0-3.2-2.13,11.72,11.72,0,0,0-7.93,0,8.48,8.48,0,0,0-3.2,2.13,9.92,9.92,0,0,0-2.13,3.64,18.21,18.21,0,0,0,0,10.44,9.91,9.91,0,0,0,2.13,3.64,8.45,8.45,0,0,0,3.2,2.13,11.72,11.72,0,0,0,7.93,0,8.46,8.46,0,0,0,3.2-2.13,9.91,9.91,0,0,0,2.13-3.64A18.23,18.23,0,0,0,579.36,379.87Z" transform="translate(-101.59 -121.99)"/><path class="cls-2" d="M599.91,388.1q-4.73-5.08-9.46-10.1,0,1-.07,2.73t0,4.66q0,0.76,0,1.89t0,2.37q0,1.24.05,2.51t0.07,2.37q0,1.09.07,1.91t0.07,1.11a10,10,0,0,0-1.27-.07,11.29,11.29,0,0,0-1.35.07q0.07-.36.16-1.35t0.16-2.35q0.07-1.37.16-3t0.15-3.2q0.06-1.6.09-3.13t0-2.73q0-3.49,0-6t-0.09-3.75h0.58l4.75,5.15q2.53,2.75,5,5.42l4.73,5.06q2.24,2.38,3.91,4.06v-4.95q0-3.82-.05-7.44t-0.24-6.82a5.25,5.25,0,0,0,1.24.18,5.08,5.08,0,0,0,1.16-.18q-0.07.8-.16,2.4t-0.18,3.42q-0.09,1.82-.16,3.57t-0.07,2.8v2.18q0,1.24,0,2.58t0,2.71q0,1.36,0,2.55t0,2.06V398h-0.51Q604.64,393.17,599.91,388.1Z" transform="translate(-101.59 -121.99)"/><path class="cls-2" d="M173.16,399.73a32.83,32.83,0,0,0,4.09-5.9,11.75,11.75,0,0,1-1.42,0,4.12,4.12,0,0,1-1.12-.2q-0.4,1-1,2.27t-1.29,2.82l-0.3.64A9.53,9.53,0,0,0,173.16,399.73Z" transform="translate(-101.59 -121.99)"/></svg>